<svg xmlns="http://www.w3.org/2000/svg" xmlns:xlink="http://www.w3.org/1999/xlink" width="832" height="497" preserveAspectRatio="xMidYMid meet" xmlns:v="https://vecta.io/nano"><path d="M550.65 491.7c-.5-.25-.65-5.8-.65-25.6v-25.35l-269.1-.15-269.15-.25.25-164.1.25-164 64.6-.15 64.65-.1.1-27.9.15-27.85 4.75.15c17.7.6 33.65 9.55 43.25 24.3 2.75 4.2 6.25 11.55 6.25 13.1 0 1.45.85.65 1.5-1.4 1.05-3.7 4.8-10.6 7.95-14.75 9.6-12.75 23.8-20.3 39.7-21l6.35-.3V84.2 112l97-.05 97-.05V85.95 60H519h73.5V31.5 3H641h48.5l.1 28.6.15 28.65 64.75.25 64.75.25V250.5v189.75l-84.5.25-84.5.25-.15 25.45-.1 25.45-6.4-.3c-6.95-.3-10.75-1.2-16.75-3.9-11.7-5.3-20.8-14.9-25.4-26.65-1.1-2.8-1.45-3.35-1.75-2.55-2.5 7.1-5.95 12.85-10.65 17.85-9 9.65-19.9 14.7-33.55 15.55-2.35.15-4.55.15-4.85.05zm11.85-5.5c4.6-1.1 13.6-5.65 17.95-9.15 9.1-7.25 16.5-20.45 17.15-30.55l.15-2.75H576h-21.75l-.15 21.95-.1 21.95 2.6-.35c1.45-.2 4.1-.7 5.9-1.1zm83.5-20.65v-22h-21.75-21.75v2.15c0 6 5.2 18.4 10.25 24.45 8.15 9.7 21.2 16.7 32.15 17.3l1.1.05v-21.95zm-279-52.2v-17.2l14.35-.3 26.3-.35h12l-.25-23.25-.3-23.25h13.2 13.2v-65.75-65.75h-27-27v-37.25V143h-29.65-29.65l.05-10.4v-10.35l-155.1-.15L22 122v140 140l122.25-.1 122.25-.15v14.4 14.35h50.25H367v-17.15zm78.5 4.7v-12.4l-32.35.2-34.25.15H377v12.25 12.25h34.25 34.25v-12.45zm240-61.5v-73.9l-1.55-.35c-.85-.15-2.3-.3-3.2-.3-2.95 0-11.15-2.4-15.6-4.55-13.2-6.45-22.75-18.35-26.15-32.5-.5-2.25-1.1-7.05-1.3-10.75l-.35-6.7 4.7-.05 24.1.05 19.35.1v-6.05-6.05l-77 .05h-77v107.5V430.5h77 77v-73.95zM134.5 421v-9H78.25 22v9 9h56.25 56.25v-9zm122 0v-9h-56-56v9 9h56 56v-9zM521 393.75V358.5h-32.5H456v15.65 15.6h9.1 9.15l-.15 3.2c-.05 1.9.15 3.5.5 3.9.9 1.15 1.4-.2 1.4-3.95v-3.4h1.75 1.75v5.15c0 7.05.15 6.9-8.55 6.85l-10.8-.05-4.15.05v13.75V429h32.5H521v-35.25zm288-71.55V216h-21.45-21.4l-.35 5c-.85 12.35-5.45 22.6-14.05 31.25-9.25 9.3-20.75 14.25-33.35 14.25H714v-25.25V216h-9.25-9.25v105.95 106l1.65.15c.85.15 26.4.25 56.75.25l55.1.05V322.2zm-339 73.3c0-1.8-.1-2-1.25-2-1.6 0-2.75 2.05-1.75 3.25.35.4 1.15.75 1.8.75 1.05 0 1.2-.25 1.2-2zm-24.6-17.85l-.15-18.4-2-.15-2-.15.15 6.1c.1 6.5-.15 7.45-2.2 7.45-.6 0-1.3.25-1.45.5-.2.3.5.5 1.7.5h2v8l.05 8h-6-6v3.25V396h8 8l-.1-18.35zM431.25 369c-.15-.25-.65-.5-1.05-.5s-.7.25-.7.5c0 .3.45.5 1.05.5.55 0 .85-.2.7-.5zm90.25-67v-46.5h-15.25H491V279v23.5h-17.5H456v23 23h32.75 32.75V302zM481 254.55v-38l-2.1-.3c-1.2-.15-6.75-.25-12.4-.15l-10.25.15-.15 38.15-.1 38.1h12.5H481v-37.95zm204.5 1.7V234.5h-21.8-21.85l.3 2.5c1.2 9.85 6 19.65 13.3 27 6.9 6.95 14.55 11.2 24.05 13.3 1.5.3 3.5.6 4.4.65l1.6.05v-21.75zm41.6 4.7c9.85-2.75 19.15-9.1 25.25-17.2 4.7-6.25 9.15-17.6 9.15-23.3v-1.95h-21.75H718v22.05 22.05l2.8-.35c1.5-.15 4.35-.75 6.3-1.3zm-227.4-17.3c-.6-1.3-.75-3.1-.6-6.4.15-4.05.3-4.85 1.65-7 1.9-3.1 3.95-4.3 7.9-4.6 2.85-.25 4.45.1 7.9 1.55.95.4 1.3-1.2 1.75-7.55l.3-3.65h-10.8H497v14.4c0 7.95.15 14.6.35 14.75.15.2.95.35 1.7.35h1.4l-.75-1.85zm8.9-2.25c-.8-.8-.75-6 .05-6.9.3-.4-.15-.1-1 .7-.95.85-1.65 2-1.65 2.6 0 1.05 2.2 4.2 2.9 4.2.15 0 .05-.25-.3-.6zm-63.1-43.9v-10h-21.7-21.65l-.35 3.05c-.15 1.7-.3 6.2-.3 10v6.95h22 22v-10zm363.85-59.35l-.1-67.4H749.5h-59.75l-.15 27.15-.1 27.1-79.15.05-116.85.15-37.75.05v18.25 18.25l116.9.15 116.85.1v21.75 21.75h60 60l-.15-67.35zm-287.95 50l.1-16.15h-32.75H456v16.25 16.25l32.65-.1 32.6-.15.15-16.1zm71.1.1V172H562h-30.5v16.25 16.25H562h30.5v-16.25zm87 0V172H641h-38.5v16.25 16.25H641h38.5v-16.25zm-234-25V149l-21.85.1-21.9.15-.15 14.15-.1 14.1h22 22v-14.25zm0-32.75V122h-5.9c-3.25 0-13.05.15-21.75.35l-15.85.3v8.2V139h21.75 21.75v-8.5zm-95.45.65l-.05-4.3c-.05-1.7.2-2.75.8-3.4.85-.95.75-.95-3.7-.95h-4.6v5.25V133h3.75H350l.05-1.85zm41.45-3.4v-5.25h-4.8c-4 0-4.75.1-4.25.65.3.4.6 2.75.65 5.25l.15 4.6h4.15 4.1v-5.25zm-26-3.5c0-1.15-.25-1.75-.7-1.75-.6 0-.6.3-.15 1.75.3.95.6 1.75.7 1.75s.15-.8.15-1.75zM521.4 92.9l-.15-22.15-32.6-.15-32.65-.1v22.25V115h32.75 32.75l-.1-22.1zm71.1-.15V70.5H562h-30.5v22.25V115H562h30.5V92.75zm87 0V70.5l-38.35.1-38.4.15-.15 22.15-.1 22.1H641h38.5V92.75zm-485.25 14.4c-1.6-12.05-6.3-22.05-14.2-30.35-8.55-8.9-19.9-14.65-31.65-16.05l-2.9-.35v24.55 24.55h24.55 24.5l-.3-2.35zM247.5 85c0-23.7-.05-24.5-.95-24.5-.5 0-2.75.35-4.9.75-23 4.35-40.3 22.95-42.8 46.15l-.25 2.1h24.45 24.45V85zm432-48.5V13H641h-38.5v23.15l.35 23.5c.15.2 17.5.35 38.5.35h38.15V36.5zM175.85 347.15L88.5 347l.1-30.65.15-30.6 88.9-.15 88.85-.1v31 31l-1.6-.1c-.9-.1-40.95-.2-89.05-.25zm-3.35-18.4v-8.25h-37-37v8.25V337h37 37v-8.25zm84 0v-8.25h-37-37v8.25V337h37 37v-8.25zm-137.85-19.6c-1.25-1.85-1.25-7.4-.05-9.3l.9-1.3h7 7v1.85c0 2.75.5 4.1 1.5 4.1.65 0 .95-.55 1.2-2 .15-1.05.8-2.4 1.4-3 1-.95 1.75-1 10.75-1s9.65.05 10.15.95c.65 1.25.65 9.4 0 9.8-1.5.95.15 1.25 6.75 1.25h7.25V303v-7.5h-37-37v7.15c0 3.95.15 7.35.35 7.5.15.2 4.9.35 10.5.35h10.15l-.85-1.35zm18.75.35c-.4-.65-1.2-1-2.15-1s-1.75.35-2.15 1c-.6.95-.5 1 2.15 1s2.75-.05 2.15-1zm8.5-5.3c-.1-.1-1.2-.2-2.4-.3-1.75-.1-2.25 0-2.25.6 0 .5.65.8 2.15.9l2.1.15.1 2.6c.1 2.5.1 2.5.25-.6.1-1.75.1-3.25.05-3.35zm55 4.45c-1.35-2.65-1.05-7.15.6-8.9 1.15-1.2 1.4-1.25 7.05-1.25 5.5 0 5.95.05 6.65 1.1.45.6.8 1.95.8 3 0 1.7.15 1.9 1.25 1.9s1.25-.2 1.25-1.85c0-1.2.4-2.25 1.1-3 1-1.1 1.45-1.15 7.45-1.15 3.5 0 6.5.2 6.7.45.6 1.05.9 9.9.3 10.25-1.7 1.05.25 1.3 10.95 1.3h11.5V303v-7.5h-37-37v7.15c0 3.95.15 7.35.35 7.5.15.2 4.55.35 9.7.35h9.35l-1-1.85zm19.1 1.45c0-1.75-3.9-2.2-4.9-.6-.6.95-.5 1 2.15 1 1.5 0 2.75-.2 2.75-.4zm-95-5.6c0-.65-.35-1-.95-1-1.1 0-1.75.75-1.3 1.5.6.95 2.25.55 2.25-.5zm82.5 0c0-.65-.35-1-.95-1-1.1 0-1.75.75-1.3 1.5.6.95 2.25.55 2.25-.5zm19 0c0-.8-.35-1-1.5-1s-1.5.2-1.5 1 .35 1 1.5 1 1.5-.2 1.5-1zm-108.4 25.1l.15-5.85 3.65-.15c2.35-.1 3.95.05 4.4.45.55.45.9.45 1.3.05.35-.35 1.9-.6 3.5-.6h2.9v1.9c0 3.05.5 4.1 1.8 4.1 1.15 0 1.2-.15 1.2-3v-3h3.9c2.3 0 4.15.25 4.5.6.4.4.75.4 1.2 0 .4-.3 3.05-.55 6.5-.55 7.05-.05 6.9-.15 6.9 6.4 0 3.95-.1 4.6-.95 5.05-.55.25-3.45.5-6.5.5H147v-3c0-1.65-.2-3-.4-3-.25 0-.35.7-.2 1.5.1.85-.05 2.2-.4 3-.6 1.5-.65 1.5-4.8 1.5-3.85 0-4.2-.1-4.2-1 0-1.4-2.8-1.45-3.25-.05-.3.95-.8 1-8.05 1h-7.75l.15-5.85zm34.9-.1c0-.55-.2-1-.5-1-.25 0-.5.45-.5 1s.25 1 .5 1c.3 0 .5-.45.5-1zm47.1.1l.15-5.85 6.95-.1c8.05-.15 8.55.05 9.1 3.65.25 1.9.5 2.2 1.5 2.2 1.15 0 1.2-.15 1.2-3v-3h7.7 7.65l.4 2.65c.65 4.35.55 7.65-.2 8.5-.55.7-1.8.85-8.1.85-7.1 0-7.45-.05-7.45-1 0-1.4-2.75-1.4-3.5 0-.45.9-1.1.95-8 .95l-7.55.05.15-5.9z"/><path d="M88.75 237.4c-.15-.35-.2-12.55-.15-27.15l.15-26.5 88.9-.15 88.85-.1v27.2 27.15l-88.75.1c-70.95.05-88.85-.05-89-.55zm26.75-14.15v-4.75l8.65.15 8.6.1-.05 2c0 1.1-.2 2.4-.4 2.9-.35.7-.15.85 1.1.85 1.55 0 1.55-.05 1.7-2.85l.15-2.9 3.7-.15c2.75-.1 3.9.05 4.5.6.75.7 1 .7 1.85.05.7-.55 2.45-.7 6.8-.75 6.95 0 6.9-.05 6.9 5.7v3.8h6.75 6.75v-6.25-6.25l-36.85.1-36.9.15-.15 5.45c-.05 3.05 0 5.8.1 6.15.2.5 2.15.65 8.55.65h8.25v-4.75zm31 2.75c0-1.45-.2-2-.75-2s-.75.55-.75 2 .2 2 .75 2 .75-.55.75-2zm52.6-2.6l.15-4.65 3.65-.15c2.5-.1 3.95.05 4.5.5.6.5.8.5.95.05s1.25-.65 3.15-.65c3.45 0 4.5.95 4.5 4.1 0 1.7.15 1.9 1.25 1.9 1.2 0 1.25-.15 1.25-3v-3h3.85c2.85 0 4.05.2 4.75.85.85.75.95.75 1.8 0 .65-.6 1.85-.85 3.8-.85h2.9l-.15 2c-.1 1.05 0 2.1.2 2.3s.35 1.45.35 2.8v2.4h10.25 10.25v-6.25-6.25l-36.85.1-36.9.15-.15 5.45c-.05 3.05 0 5.8.1 6.15.2.5 2.1.65 8.25.65h8l.15-4.6zM112 200v-5.5h3.55c1.95 0 3.95.25 4.45.5.65.35 1.05.35 1.25 0 .4-.7 5.55-.65 6.85.05.75.4 1.1.4 1.4-.05.2-.35 1.3-.5 2.8-.4l2.45.15.15 2.9.15 2.85h1.7 1.75v-3-3h3.95c2.35 0 4.15.25 4.35.55.2.4.45.4.85 0 .35-.35 3.2-.55 7.7-.55h7.15v2.15c0 1.2-.55 3.6-1.25 5.35s-1.25 3.25-1.25 3.35 2.8.15 6.25.15h6.25v-6-6h-37-37v6 6h6.75H112V200zm17.75.1c-.15-.2-.5 0-.75.4-.3.45-.25.95 0 1.2.3.3.55 1.3.6 2.3.05 1.15.15.8.25-.95.1-1.45.05-2.8-.1-2.95zm8.75 4.9c0-.25-.8-.5-1.75-.5s-1.75.25-1.75.5c0 .3.8.5 1.75.5s1.75-.2 1.75-.5zm54-5.5v-6h-5-5v6 6h5 5v-6zm11 3c0-1.65-.2-3-.5-3-.25 0-.5.6-.5 1.3 0 1.45-.8 3.2-1.95 4.05-.65.5-.5.6 1.1.65h1.85v-3zm7.5 2c0-.75-.35-1-1.25-1s-1.25.25-1.25 1 .35 1 1.25 1 1.25-.25 1.25-1zm8 0c0-.8-.35-1-1.75-1s-1.75.2-1.75 1 .35 1 1.75 1 1.75-.2 1.75-1zm37.5-5v-6h-7.45-7.45l.7 1.9c.35 1 .65 2.85.65 4.1s-.3 3.1-.65 4.15l-.7 1.85h7.45 7.45v-6zm-100.35 1c.15-.55.1-1-.15-1-.2 0-.5.45-.65 1s-.1 1 .15 1c.2 0 .5-.45.65-1zm62.85-4v-3h-1.75-1.75v3 3h1.75H219v-3zm-9.05-1.1l1.15-1.9h-1.3c-1.2 0-1.3.2-1.3 2.1 0 1.15.05 1.95.15 1.85s.7-1.05 1.3-2.05zm-7.6-1.8c-1.7-.2-2.4.25-1.35.9.4.25 1.1.2 1.7-.15 1-.55 1-.6-.35-.75zm25.9.4c.15-.25-.15-.5-.75-.5s-.9.25-.75.5c.15.3.5.5.75.5s.6-.2.75-.5zm165.5 226.15c.2-3 .6-5.7.85-6 .35-.4 1.75-.65 3.75-.65 2.8 0 3.25.15 3.6 1.1l.4 1.1.25-1.1c.25-.95.65-1.1 2.85-1.1s2.65.15 3.05 1.15l.45 1.1v-1.1c.05-1.1.15-1.1 8.25-1.1 9.75-.05 9.95.05 9.75 4.25-.1 1.5 0 2.85.2 3.05.2.15.35 1.3.35 2.5v2.15h-6.4c-4.3 0-6.6-.2-7-.6-.45-.45-.6-.45-.6 0 0 .4-1.1.6-3.5.6-2.75 0-3.55-.2-4-.85-.5-.85-.5-.85-1 0-.45.7-1.35.85-6.05.85h-5.55l.35-5.35zm170.75-102.7v-6l2.35.15c2.2.15 2.35.25 2.8 1.9l.45 1.75.8-1.85c.8-1.75 1-1.9 2.95-1.9 2.15 0 2.15 0 2.2 1.9v1.85l.8-1.85c.7-1.7.95-1.9 2.65-1.9 1.8 0 1.9.1 2.55 2.35l.7 2.3.25-2.2.25-2.2 3.5-.15c3.35-.15 3.55-.1 4.35 1.25l.85 1.4.05-1.4c0-1.3.1-1.4 1.9-1.25l1.85.15.15 5.9.15 5.85h-2.2c-1.8 0-2.3-.2-2.75-1.1l-.55-1.15v1.15c-.05 1.05-.2 1.1-5.05 1.1h-5l-.35-1.5c-.35-1.85-1.35-1.7-1.55.15l-.15 1.35h-7-6.95v-6.05zm35.15 5.1c-2.1-1.95-2.05-8.85 0-10.3 1.3-.9 6.9-1 7.75-.15.45.45.6.45.6 0 0-.8 15.55-.85 16.35-.05.4.4.65.4.85 0 .4-.65 13.1-.8 13.5-.15.15.25.1 2.95-.05 6l-.3 5.6h-6.3c-4.3 0-6.55-.2-6.95-.6-.45-.45-.6-.45-.6 0 0 .35-.8.6-2 .6h-2v-2c0-1.8-.1-2-1.25-2-1.1 0-1.25.2-1.25 2v2h-2-2v-2c0-1.8-.1-2-1.25-2-1.1 0-1.25.2-1.25 2 0 1.95-.05 2-1.7 2-.95 0-1.8-.3-1.95-.6-.2-.5-.35-.5-.9 0-1.1 1-6.1.75-7.3-.35zM631 317.5c0-1.75-.15-2-1.15-2-1.35 0-2.35.85-2.35 2s1 2 2.35 2c1 0 1.15-.25 1.15-2zm-26.55.55c.4-.7.35-1.1-.2-1.55-.85-.7-1.75-.25-1.75.95 0 1.7 1.2 2.1 1.95.6zM53 425.4c0-1.2.6-3.9 1.3-6l1.3-3.9h2.45c2.35 0 2.55.1 3.2 1.65.4.85.7 1.25.75.8 0-1.75 2.1-2.4 7.9-2.4h5.5l.8 1.65c.45.95.8 2.3.8 3 0 1.05.25 1.3 1.2 1.3 1.05 0 1.35-.45 2.15-2.85l1-2.9 2.6-.15c2.3-.15 2.65-.05 2.9.85l.25 1.05 1.4-1c1.6-1.15 6-1.4 6-.4 0 .45.15.45.6 0 .35-.35 1.9-.6 3.5-.6 3.85 0 4.6 1 4.3 5.95-.15 2.85-.4 3.75-1.4 4.8-1.1 1.2-1.45 1.25-6.35 1.25H90v-3c0-1.65-.2-3-.5-3s-.35 1.15-.15 3l.3 3h-2.6c-1.95 0-2.55-.2-2.55-.75 0-.4-.2-.75-.5-.75-.25 0-.5.35-.5.75 0 .55-.6.75-2.5.75-2.15 0-2.5-.15-2.5-1 0-1.3-1.8-1.35-2.5-.05-.45.9-1.05 1-6.25.95H64v-2.95c0-1.6-.2-2.95-.45-2.95s-.35 1.35-.2 3l.3 3h-2.3c-1.65 0-2.35-.2-2.6-.85-.3-.85-.35-.85-.95 0-.45.55-1.35.85-2.75.85H53v-2.1zm132-1.55c0-.85.65-3.5 1.45-5.85l1.45-4.25 2.4-.15c1.85-.15 2.55.05 3.05.7.55.8.7.8 1.85 0 .7-.45 2.25-.8 3.55-.8H201v3 3h1.95c1.95 0 2-.05 2.9-2.85l1-2.9 2.4-.15c1.8-.1 2.6.05 3.05.6.5.7.65.75 1.2.05.8-1 5.4-1 6.7 0 1.9 1.45 1.7 8.4-.3 10.25-1.5 1.4-9.05 1.5-9.9.15-.5-.85-.5-.85-1 0-.8 1.3-4.5 1.2-4.85-.15-.35-1.4-3.15-1.45-3.15 0 0 .9-.4.95-5 .95-4.05 0-5-.15-5-.7 0-.4-.2-.75-.5-.75-.25 0-.5.35-.5.75 0 .55-.6.75-2.5.75-2.5 0-2.5 0-2.5-1.65zm11.45-4.45c.05-.25-.3-.4-.75-.4-.55 0-.7.25-.5.8a10.88 10.88 0 0 1 .35 1.35c0 .6.85-1 .9-1.75zm285.75-18.55c-.1-.35-.15-3-.1-5.9l.15-5.2 3.45-.15c2.2-.1 3.6.05 3.8.45.3.4.65.4 1.4 0 1.6-.85 6.85-.7 7.6.2.6.7.75.7 1.5 0 1-.9 6.5-1.05 7.35-.2.4.4.65.4.85 0 .2-.3 1.25-.55 2.35-.55 1.75 0 2.05.2 2.65 1.6l.7 1.6.8-1.6c.7-1.4 1.1-1.6 2.8-1.6h2v5.9 5.9H514c-4.5 0-5.5-.1-5.5-.7 0-.65-.15-.6-.9.05-1.25 1.15-6.7 1.2-7.6.1-.6-.7-.75-.7-1.8 0-1.4.9-6.25 1-7.1.15-.45-.45-.6-.45-.6 0 0 .95-3.35.75-3.95-.25-.5-.85-.5-.85-.55 0 0 .65-.4.85-1.75.85-1 0-1.9-.3-2.05-.65zm13.25-4.45c.6-1.6-.25-3.2-1.25-2.35-.85.7-.9 2.05-.1 2.85s.85.8 1.35-.5zm9.55-1.15c0-1.05-1.1-1.75-1.85-1.2-.8.7-.85 2.05-.05 2.85.5.5.75.45 1.25-.25.35-.45.65-1.1.65-1.4zm211-77.75v-6h3.65c3.65 0 3.65 0 4.45 1.65l.75 1.6.4-1.65c.35-1.6.45-1.65 2.4-1.5 1.9.15 2.15.3 2.7 1.9.35.95.6 1.4.6.95.05-.45.45-1.3 1-1.85.8-1 1.45-1.1 5.75-1.1 3.4 0 4.8.15 4.8.6s.15.45.6 0c.35-.35 1.45-.6 2.5-.6 1.85 0 1.9.05 1.9 1.8 0 1.2-.35 2.05-1.05 2.65-.9.75-.95 1-.4 2.2.35.75.8 1.35 1.05 1.35.2 0 .4.9.4 2 0 2 0 2-1.9 2-1.05 0-2.15-.25-2.5-.6-.45-.45-.6-.45-.6 0 0 .5-1.7.6-6.85.5-6.8-.15-6.85-.15-7.15-1.35-.4-1.8-1.35-1.85-1.75-.1l-.35 1.55h-5.2-5.2v-6zm22.5 0c0-1.7-.15-2-1.1-2-.6 0-1.45.35-1.95.8-1.3 1.2-.3 3.2 1.65 3.2 1.3 0 1.4-.15 1.4-2zm11.6 5.2c-1.9-2.15-1.95-8.75-.05-10.35 1.15-1 6.9-1.2 7.85-.25.45.45.6.45.6 0s2.1-.6 8-.6c7.1 0 8 .1 8 .85s.05.75.9 0c.75-.7 2.1-.85 7.5-.85h6.55v6l.05 6h-6.3c-3.75 0-6.7-.25-7.35-.55-.8-.45-1.1-.45-1.25 0-.1.3-.95.55-1.9.55-1.65 0-1.7-.05-1.7-2 0-1.8-.1-2-1.25-2-1.1 0-1.25.2-1.25 2v2h-2-2v-2c0-1.65-.15-2-1-2s-1 .35-1 2c0 2 0 2-1.95 2-1.1 0-2.1-.3-2.25-.6-.25-.5-.35-.5-.6 0-.45.9-6.75.8-7.6-.2zm4.8-4.2c.5-.8.5-1.2 0-2-.35-.55-.8-1-1-1s-.5.45-.65 1c-.35 1.05.1 3 .65 3 .2 0 .65-.45 1-1zm27.1-1c0-1.85-.1-2-1.4-2-1.55 0-2.6.8-2.6 2s1.05 2 2.6 2c1.3 0 1.4-.15 1.4-2zm-319.5-34.45c0-2.15.15-2.5 1.15-2.7l1.1-.2-1.1-.4c-1.15-.35-1.15-.4-1.15-11.25v-10.95l1.15-.2 1.1-.2-1.1-.4c-1-.3-1.15-.7-1.15-2.8 0-2.45 0-2.45 1.65-2.45.85 0 3.5.7 5.85 1.5l4.4 1.5c.05 0 .1 1.1.1 2.4 0 2.65-.6 3.6-2.3 3.6-.65 0-1.3.25-1.45.5-.2.3.5.5 1.7.5h2l.05 10.35c0 10.85-.15 11.65-2.3 11.65-.6 0-1.3.25-1.45.5-.15.3-.85.5-1.5.5s-1.35.25-1.5.5c-.15.3-1.4.5-2.8.5h-2.45v-2.45zm0-34.2c0-1.2.25-2.4.6-2.75.45-.45.45-.6 0-.6-.5 0-.6-1.35-.4-5.6.35-7.15.35-6.45 0-11.25l-.3-4.15h6.1 6.1l-.3 4.15-.25 4.85c0 .4.1 4.5.2 9.15l.2 8.35h-1.6c-.9 0-2.25-.35-3-.75-1.3-.65-1.55-.65-2.5 0-.6.4-1.9.75-2.95.75h-1.9v-2.15zm6.75-10.85c.15-.25-.15-.5-.75-.5s-.9.25-.75.5c.15.3.5.5.75.5s.6-.2.75-.5zM407 204.5c-.8-.8-1-1.7-1-4.75 0-3.35.15-3.95 1.25-5 1.15-1.2 1.45-1.25 7.65-1.25 7.45 0 8.1.3 8.1 3.9 0 1.75.15 2.1 1 2.1.7 0 1.05-.45 1.3-1.85.15-1.05.8-2.4 1.35-3 .95-1.1 1.4-1.15 7.9-1.15 3.8 0 7 .2 7.15.4.15.25.4 2.5.6 5 .5 6.6.5 6.6-8.25 6.6-6.25 0-6.85-.1-7.45-1-.85-1.35-3.65-1.35-4.45 0-.55.85-1.25.95-7.4.95-6.1.05-6.85-.05-7.75-.95zm0-37.95v-6.05h6.7 6.7l.8 1.7c.45.95.8 2.3.8 3 0 1.05.25 1.3 1.25 1.3 1.2 0 1.25-.15 1.25-3v-3h4c3.8 0 4 .05 4.05 1.15v1.1l.8-1.1c.6-.9 1.25-1.15 2.95-1.15h2.2v2.7c0 1.5.25 2.9.5 3.05.7.45.6 3.3-.1 4.9-.55 1.15-.95 1.35-2.75 1.35s-2.15-.15-2.15-1c0-.8-.35-1-1.75-1s-1.75-.2-1.75-1c0-.55-.35-1-.75-1-.55 0-.75.55-.75 2v2h-2.25c-1.9 0-2.25-.15-2.25-1 0-.8-.35-1-1.5-1-.95 0-1.65.35-2 1-.45.8-1.05 1-3.45 1-3.15 0-3.75-.4-4.3-2.65-.5-1.95-1.15-1.7-1.35.55-.15 1.85-.15 1.85-2.5 2l-2.4.15v-6zm.5-34.05v-6h6.65c7.7 0 8.35.3 8.35 3.9 0 1.9.1 2.1 1.25 2.1 1.1 0 1.2-.2 1.35-2.85l.15-2.9 3.85-.15 3.85-.15.15 1.4.2 1.4.7-1.35c.6-1.25.95-1.4 3.1-1.4h2.4v3c0 1.65.2 3 .5 3s.5.9.5 2-.2 2-.5 2c-.25 0-.5.45-.5 1 0 .85-.35 1-2.25 1s-2.25-.15-2.25-1c0-.65-.35-1-1-1s-1 .35-1 1c0 .9-.35 1-4 1s-4-.1-4-1c0-.75-.35-1-1.45-1-1.05 0-1.6.3-1.8 1-.3.95-.75 1-7.3 1h-6.95v-6zm70.85-29.35c-.2-.15-.35-1.15-.35-2.2 0-1.4.25-2.05 1-2.45.9-.5 1-1.05 1-5.25V88.5h2.2c1.35 0 2.3.25 2.45.65.15.45.35.45 1-.05.45-.4 1.65-.6 2.95-.5l2.15.15.15 2.9.15 2.85h1.7 1.75v-3-3h2.15c1.2 0 2.4.25 2.7.55.4.4.65.4.85 0 .2-.3 1.65-.55 3.3-.55h2.9l.35 4.75c.5 6.4 0 7.25-4.25 7.25-2.7 0-3 .1-3.6 1.4-.6 1.25-.9 1.35-3.4 1.35h-2.75v-2.4c0-1.85-.2-2.35-.8-2.35-.45 0-.95.45-1.1 1-.2.8-.7 1-2.55 1H486v-3c0-2.35-.15-3-.75-3s-.75.75-.75 3.9c0 2.35-.25 4.15-.6 4.5-.65.65-5 .85-5.55.25zm70.15-8.65v-6h2.2c1.35 0 2.3.25 2.45.65.15.45.35.45 1-.05.45-.4 1.65-.6 2.95-.5l2.15.15.15 2.9.15 2.85h1.7H563v-3-3h2.15c1.2 0 2.4.25 2.7.55.4.4.65.4.85 0 .2-.3 1.55-.55 3.05-.55h2.65l.3 2.15c.9 5.6.9 7.4.1 8.6-.75 1.15-1 1.2-6.3 1.2-5.1 0-5.5-.1-5.5-1 0-.8-.35-.95-2-.95s-2 .15-2 1-.35 1-2.25 1h-2.25v-3c0-2.35-.15-3-.75-3s-.75.65-.75 3v3h-2.25-2.25v-6zm74 0v-6h2.25c2.05 0 2.25.1 2.25 1.2 0 .7.25 1.4.5 1.55.3.2.5-.35.5-1.2 0-1.5.1-1.55 2.2-1.55 1.35 0 2.3.25 2.45.65.15.45.35.45 1-.05.45-.4 1.65-.6 2.95-.5l2.15.15.15 2.9.15 2.85h1.7 1.75v-3.05-3l2.35.15c2.2.15 2.4.25 2.7 1.65l.35 1.5.05-1.6.05-1.65h5.45 5.4l.35 3.05c.45 4.7.35 7.7-.3 8.35-.4.4-2.4.6-5.75.6H648v-2.05c0-1.2-.2-1.9-.5-1.7-.25.15-.5 1.1-.5 2.05 0 1.7 0 1.7-2.25 1.7-1.9 0-2.25-.15-2.25-1 0-.8-.35-1-1.7-1-1.3 0-1.8.25-2.05 1-.25.8-.75 1-2.55 1H634v-3c0-2.35-.15-3-.75-3s-.75.65-.75 3v3h-2.25H628v-2.05c0-1.2-.2-1.9-.5-1.7-.25.15-.5 1.1-.5 2.05 0 1.7 0 1.7-2.25 1.7h-2.25v-6zm3.5-57v-6.05l2.4.15 2.35.15.15 3.4c.15 2.95.25 3.35 1.1 3.35.9 0 1-.35 1-3.5v-3.5h4.75c3.9 0 4.75.15 4.75.75 0 .4.2.75.45.75s.55-.35.75-.75c.35-.95 5.3-1.1 5.3-.15 0 .45.15.45.6 0 .35-.35 1.7-.6 3-.6h2.4v6 6h-2.25-2.25v-3c0-2.3-.15-3-.75-3-.5 0-.75.75-.85 2.9l-.15 2.85-11.35.15-11.4.1v-6z"/><g fill="#fff"><path d="M0 248.5V0h416 416v248.5V497H416 0V248.5zm564.85 240c8.35-2.3 15.05-6.3 21.65-12.95 6.3-6.3 10.5-13.7 12.75-22.3.85-3.3 1.25-4 1.25-2.1s3.1 10.3 5.2 14.1c7.85 13.95 22.7 23.6 37.9 24.6l4.9.3.1-25.45.15-25.45 84.5-.25 84.5-.25V250.5 62.25L753 62l-64.75-.25-.15-28.65-.1-28.6h-47-47V33v28.5h-73.5H447v25.95 26l-98.5.05H250V85.7 57.85l-4.85.3c-14.7.95-29.05 8.8-38.2 21-4.7 6.25-8.85 15.2-9.75 21.1-.3 2.3-1.2 3.15-1.2 1.1 0-3.7-3.8-13.1-7.75-19.15-9.2-14.15-25.1-23.45-41.6-24.3l-3.4-.15-.15 27.85-.1 27.9-64.65.1-64.6.15-.15 28.65c-.1 28.05-.1 28.6.85 28.6.55 0 1.15.2 1.3.5s-.25.5-.9.5H13.6l-.2 133.4-.1 133.5c.05.1 356.3.2 381.35.1.2 0 .35-.5.35-1.1 0-.9.1-1 .45-.4.3.4.4.85.3 1.05-.35.55 101.05 1.1 129.65.75l26.1-.35v25.5c0 18.05.15 25.5.55 25.65 1.15.4 9.2-.6 12.8-1.6zm-12.25-22.8l.15-23.45H576h23.25l-.1 4c-.3 11.05-7.45 24.5-17.2 32.3-4.3 3.45-13.25 8-17.95 9.2-1.8.4-5.1.9-7.4 1.1l-4.1.3.1-23.45zm86.9 22.75c-4.15-.7-10.55-3.1-14.8-5.5-8.4-4.8-14.75-11.55-18.95-20.2-3.2-6.55-4.75-12.1-4.75-17.1V442h23.25 23.25v23.5V489l-2.6-.05c-1.45-.05-3.9-.25-5.4-.5zm-87-48.45c0-1 .35-1 23.5-1s23.5 0 23.5 1-.35 1-23.5 1-23.5 0-23.5-1zm48 0c0-1 .35-1 23.4-1l23.75.3c.15.15.15.6 0 1-.2.6-4.05.7-23.7.7-23.1 0-23.45 0-23.45-1zm-205.65-7c.25-.95 0-1-9.55-1h-9.8v-13.75-13.75h1.65l35.75-.2 34.1-.15v13.9V432h-25.75c-25.4 0-25.75 0-25.75 1 0 .55-.2 1-.45 1s-.35-.45-.2-1zm4.8-9.7c1.4-1.05.95-3.3-.85-4.3-2.1-1.15-2.15-1.9-.2-2.1 2.25-.2 2.25-1.6 0-1.8-2.15-.2-3.2.65-3 2.55.1 1.1.6 1.75 1.6 2.35 2.3 1.25 2.2 2-.15 2-1.7 0-2.05.15-2.05 1s.35 1 1.9 1c1 0 2.25-.35 2.75-.7zm3.85-.3c.35-.65 1.05-1 2-1s1.65.35 2 1c.5.95 2.05 1.45 1.95.65 0-.25-.65-2.2-1.4-4.4-1.2-3.45-1.5-4-2.55-4-1.15 0-1.55.8-3.75 7.7-.45 1.4 1 1.45 1.75.05zm8.5-2c0-1.65.2-3 .4-3s1.1 1.3 1.9 2.9c1.05 1.95 1.85 2.9 2.6 3 1.05.15 1.1 0 1.1-4.35 0-3.7-.15-4.55-.75-4.55s-.75.7-.75 3.4l-.05 3.35-1.75-3.35c-1.4-2.8-1.95-3.4-2.95-3.4-1.25 0-1.25.05-1.25 4.5 0 3.65.15 4.5.75 4.5s.75-.65.75-3zm13.9 2.15c-.1-.55-.7-.95-1.55-1.05-1.65-.2-1.65-.35-.1-2.2 1.45-1.7 1.6-3 .45-4.1-.9-.95-3.25-1.05-4.1-.2-1.05 1.05-.65 1.4 1.4 1.4 1.35 0 2 .2 2 .7 0 .35-.9 1.6-2 2.75-2.85 2.95-2.7 3.55 1.05 3.55 2.6 0 3-.1 2.85-.85zm-21.15-4.25c.5-1.55 1.25-2.35 1.25-1.3 0 .45.15 1.15.3 1.6.2.6 0 .8-.8.8-.9 0-1-.2-.75-1.1zM265 417.65v-14.4l-122.25.15-122.25.1V287.75L19.75 172c-.4 0-.75-.25-.75-.55s.35-.45.75-.25c.65.25.75-2.75.75-25.2v-25.5l156.65.1 156.6.15v10.4 10.35h29.65H393v14.9 37.25l-.05 22.35 1.4-.1c.75-.05 12.95-.05 27.05 0l25.6.1v67.25 67.25h-13.1-13.15l.2 23.25.15 23.25h-12.5c-7.85 0-12.65.2-12.85.5s-.65.35-1.15.05c-.5-.25-6.3-.35-13.45-.2l-12.65.3v17.15V432h-51.75H265v-14.35zm0-101.15V287l-87.35.1-87.4.15-.15 29.1-.1 29.15 87.35.15 87.55.25c.05.05.1-13.2.1-29.4zm0-105.8V185l-87.35.1-87.4.15-.15 25 .1 25.55c.15.4 23.95.55 87.5.55H265V210.7zM97 328.75V319h38.5H174v9.75 9.75h-38.5H97v-9.75zm27.85 4.85c.85-.55 1.35-2.95.7-3.35-.35-.2-.45-1.05-.25-2.2.4-2.4-.5-3.15-3.4-2.95l-2.15.15-.15 4.4-.15 4.35h2.4c1.3 0 2.65-.2 3-.4zm7.55-.85c1.2-2.55.2-4.75-2.1-4.75-.7 0-1.3-.15-1.3-.3 0-.6 1.7-1.65 2.65-1.7.45 0 .85-.2.85-.5 0-.7-2.6-.6-3.6.2-1.85 1.4-2.45 5.25-1.1 7.2 1.1 1.6 3.85 1.55 4.6-.15zm11.95.15c.3-.65.35-1.6.1-2.15-.2-.55-.25-1.75-.1-2.65.4-2.3-.5-3.1-3.4-3.1h-2.45v4.5 4.5h2.65c2.3 0 2.75-.15 3.2-1.1zm6.15-3.15c0-4.75-.45-5.45-2.7-4-1.6 1.05-1.85 2.6-.3 1.75.95-.5 1-.4 1 3 0 3.15.1 3.5 1 3.5s1-.35 1-4.25zm7.05 3.75c1.1-.6 1.35-3.3.35-3.65-.5-.15-.5-.45.05-1.45.5-1 .5-1.5.05-2.35-.45-.9-.95-1.1-2.65-.95-1.45.1-2.1.4-2.1.9 0 .55.45.7 1.65.6.85-.05 1.6.1 1.6.35 0 1.05-.65 2.05-1.3 2.05-.4 0-.7.25-.7.5 0 .3.45.5 1 .5 1.4 0 1.8 1.3.75 2.3-.7.75-1 .75-1.85.25s-1.1-.5-1.45 0c-.2.35-.25.85-.15 1.05.35.55 3.6.5 4.75-.1zm-20.55-2c0-.25-.65-.5-1.5-.5-.8 0-1.5.25-1.5.5 0 .3.7.5 1.5.5.85 0 1.5-.2 1.5-.5z"/><use xlink:href="#B"/><path d="M121.35 328.65c-.6-.55-.35-2.65.3-2.65.3 0 1.05.35 1.55.75.8.6.85.85.3 1.5-.65.8-1.6 1-2.15.4zm7.4 2.8c-.45-1.45 1.05-2.75 2.1-1.85 1.05.85.6 2.6-.7 2.8-.75.1-1.15-.2-1.4-.95zM140 331c0-.8.35-1 1.5-1s1.5.2 1.5 1-.35 1-1.5 1-1.5-.2-1.5-1zm0-3.5c0-1.65.35-1.85 1.7-.85 1.05.8.6 2.35-.75 2.35-.7 0-.95-.35-.95-1.5zm41 1.25V319h38.5H258v9.75 9.75h-38.5H181v-9.75zm26.5 3.75c.45-1.15.5-1.65.05-2.2-.35-.4-.45-1.25-.3-1.95.2-.7.2-1.75 0-2.35-.3-.9-.65-1.05-2.9-.9l-2.6.15-.15 4.4-.15 4.35h2.7c2.55 0 2.75-.1 3.35-1.5zm6.55.4c.95-1.8.8-5.7-.3-6.9s-2.9-1.3-3.8-.2-.9 6.3 0 7.4c1 1.2 3.4 1.05 4.1-.3zm12.3 0c.3-.75.35-1.6.05-2.35a5.28 5.28 0 0 1-.1-2.65c.45-2.1-.5-2.9-3.35-2.9h-2.45v4.5 4.5h2.65c2.3 0 2.75-.15 3.2-1.1zm7.05-.5c.9-1.95-.1-4.1-2.05-4.3-1.85-.2-1.75-1.1.15-1.1 1.15 0 1.5-.2 1.5-1 0-.85-.35-1-2.25-1-2.25 0-2.25 0-2.25 1.7 0 2.5.45 3.45 1.3 2.75.5-.4.85-.35 1.45.2.4.45.75 1.05.75 1.35s-.35.9-.75 1.35c-.6.6-.95.6-1.5.15-.85-.7-1.75-.25-1.75.8 0 .6.55.7 2.35.6 2.05-.15 2.5-.35 3.05-1.5zm-14.4-.9c0-.25-.65-.5-1.5-.5-.8 0-1.5.25-1.5.5 0 .3.7.5 1.5.5.85 0 1.5-.2 1.5-.5z"/><use xlink:href="#B" x="82"/><path d="M203.35 328.65c-.6-.55-.35-2.65.3-2.65 1.15.05 2.4 1.35 2.05 2.2-.3.8-1.75 1.1-2.35.45zm7.6 2.65c-.75-1.6-.15-4.8.85-4.8 1.1 0 1.85 2.2 1.5 4.2-.4 2.1-1.55 2.4-2.35.6zM222 331c0-.8.35-1 1.5-1s1.5.2 1.5 1-.35 1-1.5 1-1.5-.2-1.5-1zm0-3.5c0-1.65.35-1.85 1.7-.85 1.05.8.6 2.35-.75 2.35-.7 0-.95-.35-.95-1.5zM97.35 311.65c-.2-.15-.35-4.2-.35-9V294h38.5H174v9 9h-38.15c-21 0-38.35-.15-38.5-.35zm27.65-3.6c0-.8-.4-1-1.85-1.15-1.9-.15-1.9-.15-1.9-2.4 0-2.2.05-2.25 1.75-2.4 3.15-.3 3.15-2.1 0-2.1-2.4 0-3.75 1.65-3.7 4.6.1 2.95 1.3 4.4 3.7 4.4 1.65 0 2-.15 2-.95zm6.95-.65c.6-1 .65-1.65.25-2.75-.45-1.2-.75-1.4-2.35-1.35-1 .05-1.85-.1-1.85-.3 0-.55 2.35-2 3.25-2 .4 0 .75-.2.75-.5 0-.25-.65-.5-1.45-.5-1.05 0-1.85.45-2.8 1.6-1.15 1.35-1.3 1.95-1.1 3.75.3 2.8 1.1 3.75 3.05 3.55 1.05-.1 1.75-.55 2.25-1.5zm12.05.65c0-.8-.4-1-2.1-1.15l-2.15-.15v-2.25c0-2.25 0-2.25 2-2.5 1.35-.15 2.05-.5 2.15-1.1.15-.75-.2-.9-1.75-.9-2.25.05-3.4.8-4.15 2.75-.6 1.6-.35 3.4.8 5.15.55.85 1.2 1.1 2.95 1.1 1.9 0 2.25-.15 2.25-.95zm5.5-3.55c0-4.2-.05-4.5-1-4.5-.6 0-1.65.55-2.4 1.25l-1.35 1.25h1.4c1.35 0 1.35.05 1.35 3.25 0 2.9.1 3.25 1 3.25.95 0 1-.35 1-4.5zm7.3 3.65c.85-1.1.9-2.75.1-3.55-.4-.4-.4-.75.1-1.35s.5-1.05.05-2.05c-.5-1.1-.8-1.25-2.7-1.1-1.45.1-2.1.4-2.1.9 0 .55.45.7 1.65.6 2.25-.15 2.15 1.65-.15 2.65-.9.4-.85.45.4.65 1.75.2 2.2 1.3 1.1 2.4-.7.7-1.05.75-1.8.3-1.25-.8-1.45-.75-1.45.4 0 .85.35 1 2.05 1 1.4 0 2.3-.3 2.75-.85zM136 306.5c0-.25-.55-.5-1.2-.5-.7 0-1.4.25-1.55.5-.2.3.35.5 1.2.5s1.55-.2 1.55-.5zm-7.4.4c-.8-.8-.75-1.3.1-2.2.95-.95 1.15-.9 1.8.35.45.75.4 1.2-.05 1.75-.7.85-1.05.9-1.85.1zm52.75 4.75c-.2-.15-.35-4.2-.35-9V294h38.5H258v9 9h-38.15c-21 0-38.35-.15-38.5-.35zm26.65-3c-.05-1-.9-1.6-2.5-1.75-1.7-.15-1.75-.2-1.75-2.4v-2.25l2.15-.15c1.7-.15 2.15-.35 2-1-.1-.55-.75-.9-1.9-1-3.55-.3-5.55 4.25-3.35 7.55.75 1.15 1.25 1.35 3.1 1.35 1.25 0 2.25-.15 2.25-.35zm5.7-.75c.45-.6.8-2.15.8-3.4 0-2.85-1.1-4.5-2.95-4.5-1.7 0-2.55 1.55-2.55 4.65 0 2.55 1.15 4.35 2.75 4.35.65 0 1.55-.5 1.95-1.1zm12.3.1c0-.85-.35-1-2-1-1.7 0-2.05-.2-2.3-1.25-.15-.7-.15-1.8 0-2.5.25-1.05.6-1.25 2.3-1.25 1.65 0 2-.15 2-1 0-.8-.35-1-1.85-1-2.65 0-4.15 1.55-4.15 4.35 0 3.2 1.2 4.6 3.9 4.65 1.75 0 2.1-.15 2.1-1zm6.3.15c.9-1.2.9-3.55 0-4.45-.4-.4-1.3-.7-2-.7s-1.3-.2-1.3-.5c0-.25.8-.5 1.8-.5 1.4 0 1.75-.15 1.6-.85-.1-.65-.75-.95-2.3-1.05l-2.1-.15v2.5c0 2.3.65 3.4 1.1 2 .3-.9 2.4.4 2.4 1.45s-2.1 2.5-2.4 1.65c-.3-.95-1.6-.6-1.6.45 0 .85.35 1 2.05 1 1.4 0 2.3-.3 2.75-.85zm-13.55-1.65c.2-.3-.35-.5-1.2-.5s-1.55.25-1.55.5c0 .3.55.5 1.2.5.7 0 1.4-.2 1.55-.5z"/><use xlink:href="#C"/><path d="M97.2 228.85c-.1-.35-.15-3.8-.1-7.6l.15-7 38.4-.15L174 214v7.75 7.75l-10.1-.05c-7.2-.05-9.7-.2-8.55-.5 1.9-.55 2.7-2.5 1.7-4.05-.45-.75-.45-1.15 0-1.7s.45-1.05 0-2c-.5-1.1-.8-1.25-2.7-1.1-1.45.1-2.1.4-2.1.9 0 .55.45.7 1.65.6 1.25-.1 1.6.1 1.6.8 0 .55-.6 1.25-1.35 1.6l-1.4.65 1.5.3c1.8.35 2.15 1.55.7 2.45-.75.5-1.2.55-1.6.15-.3-.3-.75-.55-.95-.55-.65 0-.45 1.9.25 2.15.3.15-.3.3-1.4.3l-2 .05.15-4.75c.2-5.2-.1-5.65-2.65-3.95-1.6 1.05-1.6 1.9-.05 1.6 1.2-.25 1.25-.15 1.4 3.45l.15 3.65-5.25-.05c-3.9-.05-4.75-.15-3.3-.45 1.1-.2 2.4-.9 2.9-1.5 1.25-1.55 1.15-4.55-.15-6.2-.9-1.15-1.35-1.35-3.4-1.2l-2.3.15-.15 4.2c-.1 3.05.05 4.35.5 4.6.35.25-1.8.45-4.8.45-4.45 0-5.35-.1-4.7-.6.4-.35 1.45-2.4 2.3-4.55 1.75-4.4 1.7-4.5-2.2-4.25-1.8.1-2.45.35-2.45.9 0 .5.6.8 1.9.9 1 .1 1.85.3 1.85.5 0 .15-.6 1.8-1.35 3.7l-1.4 3.4-3-.05c-2.2 0-2.7-.15-1.95-.45 2.7-1.05 3.6-5.25 1.65-7.7-.85-1.1-1.4-1.3-3.5-1.3h-2.5l.15 4.75.15 4.75h-9.9c-7.65 0-9.95-.15-10.15-.65zm38.05-2.35c.2-.3-.35-.5-1.2-.5s-1.55.25-1.55.5c0 .3.55.5 1.2.5.7 0 1.4-.2 1.55-.5zm45.95 2.35c-.1-.35-.15-3.8-.1-7.6l.15-7 38.4-.15L258 214v7.75 7.75l-18.1-.1c-10 0-17.4-.15-16.55-.25 3.3-.4 4.85-5 2.6-7.85-.85-1.1-1.4-1.3-3.5-1.3h-2.5l.15 4.75.15 4.75-4.25-.05c-3.35 0-4-.15-3.15-.55 1.2-.6 1.65-1.75 1.65-4.65 0-2.6-1.15-4.25-2.95-4.25-1.7 0-2.55 1.55-2.55 4.8 0 1.7.3 2.55 1.25 3.45l1.2 1.25-4.85-.05c-3.7-.05-4.4-.15-2.9-.45 1.1-.2 2.4-.9 2.9-1.5 1.25-1.55 1.15-4.55-.15-6.2-.9-1.15-1.35-1.35-3.4-1.2l-2.3.15-.15 4.2c-.1 3.05.05 4.35.5 4.6.35.25-3.9.45-9.5.45-7.85 0-10.2-.15-10.4-.65zm52.5-.95c1.7-2.4.15-5.35-2.5-4.7-1.95.5-1.3-.65 1.1-1.9l1.95-1.05-1.5-.15c-1.15-.15-1.8.15-2.85 1.35-2.5 2.8-1.5 7.55 1.6 7.55.9 0 1.7-.4 2.2-1.1zm-14.95-1.4c-.15-.25-.85-.5-1.55-.5-.65 0-1.2.25-1.2.5 0 .3.7.5 1.55.5s1.4-.2 1.2-.5zm11.8.3c-.45-.55-.45-.95.05-1.75.8-1.3 1.2-1.3 1.9 0 .45.75.4 1.2-.05 1.75-.75.9-1.15.9-1.9 0zm-19.85 0c-.15-.35-.2-1.65-.1-2.85.1-1.8.35-2.2 1.15-2.2.85 0 1 .4 1.15 2.45.1 1.6-.05 2.6-.5 2.85-.95.6-1.4.55-1.7-.25zm-91.85-.15c-.55-.5-.4-5.05.15-5.4.3-.15 1.2.15 2 .75 2.4 1.7 1.9 5-.75 5-.6 0-1.25-.15-1.4-.35zm19.6.1c-.2-1.7 0-5.5.35-5.6.25-.1 1.1.4 1.9 1 1.3 1.05 1.4 1.4 1.1 3-.3 1.65-.5 1.85-1.8 1.85-.85 0-1.5-.1-1.55-.25zm64 .15c-.25-1.25-.05-5.6.3-5.75.3-.05 1.15.4 1.95 1 1.3 1.05 1.4 1.4 1.1 3-.3 1.65-.5 1.85-1.8 1.85-.85 0-1.5-.05-1.55-.1zm19.4-.25c-.55-.55-.4-5.05.2-5.45.9-.55 3.2 1.5 3.35 3 .1.75-.1 1.7-.45 2.1-.6.7-2.5.95-3.1.35zM97 199.5V192h38.5H174v7.5 7.5h-38.5H97v-7.5zm22.2 4.45c1.1-.85 1.3-1.4 1.3-3.45 0-3.1-1.5-4.5-4.8-4.5h-2.2v4.5 4.5h2.2c1.45 0 2.6-.35 3.5-1.05zm8.7.2c-.1-.55-.7-.95-1.55-1.05-1.15-.15-2-1.1-.95-1.1.55 0 2.1-2.75 2.1-3.65 0-1.95-3.5-3.15-4.9-1.75-1.05 1.05-.65 1.4 1.4 1.4 2.55 0 2.55.7 0 3.25-2.9 2.95-2.7 3.75 1.05 3.75 2.6 0 3-.1 2.85-.85zm5.35-.3c.15-.6.25-2.6.15-4.35-.15-3.6-.95-4.3-2.85-2.65-1.3 1.1-1.35 1.65-.05 1.65.9 0 1 .35 1 3.25 0 2.55.15 3.25.75 3.25.4 0 .85-.5 1-1.15zm12.55-.15c1.55-1.6 1.6-4.55.15-6.4-.85-1.1-1.4-1.3-3.5-1.3H140v4.5 4.5h2.3c1.85 0 2.6-.25 3.5-1.3zm8.45.3c0-.45-.55-.8-1.35-.9-1.7-.2-1.7-.35-.15-2.2 1.35-1.6 1.6-3.35.65-4.3-.8-.8-3.65-.75-4.35.05-.75.95-.2 1.35 1.8 1.35.9 0 1.65.2 1.65.45s-.9 1.6-2 3-2 2.75-2 3.05c0 .35 1.05.5 2.9.4 2.15-.1 2.85-.35 2.85-.9zm5.3-3c.8-2.05 1.45-4 1.45-4.35 0-.45-.85-.65-2.75-.65-2.4 0-2.75.1-2.75 1 0 .8.35 1 1.75 1 .95 0 1.75.2 1.75.45s-.55 1.7-1.25 3.25c-1.5 3.35-1.5 3.4-.45 3.2.5-.1 1.4-1.65 2.25-3.9zm-21.05 1.5c0-.25-.65-.5-1.5-.5-.8 0-1.5.25-1.5.5 0 .3.7.5 1.5.5.85 0 1.5-.2 1.5-.5zm-23.05.15c-.1-.9.15-5.4.3-5.6.1-.1.9.35 1.7.95 1.5 1.05 1.95 2.45 1.25 4.2-.3.8-3.15 1.15-3.25.45zm26.5.25c-.35-1-.35-4.8 0-5.35s.7-.5 2 .4c2.45 1.8 1.95 5.05-.8 5.05-.65 0-1.15-.05-1.2-.1z"/><path d="M181 199.5V192h38.5H258v7.5 7.5h-38.5H181v-7.5zm18.05 3.85c2.2-1.7 2.55-4.9.75-6.95-.95-1.15-1.6-1.4-3.5-1.4H194v4.5 4.5h2.15c1.15 0 2.45-.3 2.9-.65zm7.85-3.85c.1-3.8 0-4.5-.65-4.5-1.15 0-3.25 1.5-3.25 2.3 0 .85.6.9 1.4.1.45-.45.6.2.6 3 0 3.15.1 3.6.9 3.6s.95-.5 1-4.5zm7.1 3.55c0-.55.3-1.1.65-1.25.5-.25.5-.35 0-.6-.4-.2-.65-1.35-.65-3.25 0-2.15-.2-2.95-.7-2.95-.75 0-4.85 6.05-4.5 6.6.15.25 1.05.4 2 .4 1.35 0 1.7.2 1.7 1 0 .55.35 1 .75 1s.75-.45.75-.95zm11.95 0c.8-.6 1.25-1.55 1.4-3.2.25-2 .1-2.45-1.1-3.55-1.05-1-1.95-1.3-3.55-1.3h-2.2v4.5 4.5h2.15c1.25 0 2.55-.4 3.3-.95zm8.7.25c.35-.95-.05-1.3-1.5-1.3s-1.45-.25.1-1.9c1.35-1.45 1.55-2.6.75-4.15-.9-1.6-5-1.05-5 .65 0 .2.9.4 2 .4 1.35 0 2 .2 2 .65 0 .4-.9 1.6-2 2.75-2.8 2.85-2.65 3.6.7 3.6 1.85 0 2.8-.2 2.95-.7zm6.25-1.65c.6-1.8.6-2.5 0-4.25-.55-1.9-.85-2.15-2.25-2.3-1.35-.15-1.7.1-2.45 1.45-.9 1.8-.75 5.45.3 6.75.4.45 1.25.7 2.2.6 1.35-.15 1.65-.45 2.2-2.25zm-21.9-.15c0-.25-.65-.5-1.5-.5-.8 0-1.5.25-1.5.5 0 .3.7.5 1.5.5.85 0 1.5-.2 1.5-.5zm-23.5-2.45c0-3.3.4-3.7 2.4-2.15.95.75 1.15 1.3 1 2.9-.15 1.8-.3 1.95-1.75 2.1l-1.65.15v-3zm15.5.45c.6-.8 1.15-1.5 1.3-1.5.1 0 .2.7.2 1.5 0 1.3-.2 1.5-1.3 1.5h-1.25l1.05-1.5zm11.35 2.2c-.2-.2-.35-1.6-.35-3.1 0-2.4.1-2.65.9-2.35.45.2 1.2.45 1.7.6.95.3 1.35 1.85.9 3.65-.3 1.25-2.35 2-3.15 1.2zm15.15-.45c-1-2.6-.3-5.15 1.2-4.6 1 .4 1.55 2.65 1 4.25-.65 1.75-1.6 1.95-2.2.35zM530 323V214.05h78.5L687 214v7.5 7.5h-19.35-24.1-4.65l.35 5.15c1.25 18.75 11.15 33.8 27.4 41.8 4.45 2.15 12.65 4.55 15.6 4.55.9 0 2.35.15 3.2.3l1.55.35v75.4V432h-78.5H530V323zm37-4.6c0-1.95.15-3.4.4-3.2.2.2.8 1.75 1.35 3.45.55 1.65 1.25 3.1 1.5 3.2.3.1.9-1.15 1.35-2.75.45-1.55 1.15-3.25 1.5-3.75.55-.75.6-.3.5 2.9-.1 2.45 0 3.75.35 3.75s.55-1.6.55-4.5c0-3.5-.15-4.5-.7-4.5-.35 0-.8.4-.95.9-1.2 3.5-2.25 5.85-2.6 5.75-.25-.05-.95-1.5-1.55-3.25-.65-1.85-1.45-3.2-1.9-3.3-.7-.15-.8.5-.8 4.35 0 2.7.2 4.55.5 4.55s.5-1.55.5-3.6zm10.1 2.25c.15-1.25.4-1.4 2.2-1.55 1.95-.15 2.1-.05 2.35 1.35.2.85.55 1.55.8 1.55s-.2-2-1.1-4.5c-.85-2.45-1.7-4.5-1.9-4.5-.35 0-2.75 5.65-3.25 7.65-.2.8-.1 1.35.2 1.35s.6-.6.7-1.35zm8.4-3.2c0-2.85-.2-4.4-.5-4.2-.25.15-.5 2.2-.5 4.55 0 2.45.2 4.2.5 4.2s.5-1.85.5-4.55zm3.1 1.65c-.35-5.1-.05-5.2 2.4-1 1.25 2.15 2.55 3.9 2.9 3.9.45 0 .6-1.15.6-4.2 0-5.25-.9-6.25-1.1-1.25l-.15 3.6-2.25-3.55c-1.2-2-2.4-3.6-2.6-3.6-.45 0-.45.1-.45 5 0 4.3-.05 4 .45 4 .25 0 .3-1.3.2-2.9zm17.35 1.95c1.6-1.25 1.8-5.4.35-7-1.2-1.3-3.8-1.4-5.2-.15-1.7 1.4-1.7 5.5 0 7.1 1.35 1.25 3.25 1.25 4.85.05zm5.85-3.05c.95 0 1.7-.2 1.7-.5 0-.25-.8-.5-1.75-.5-1.6 0-1.75-.1-1.75-1.5s.1-1.5 2-1.5c1.1 0 2-.2 2-.5 0-.25-1-.5-2.25-.5h-2.25l.1 4.65c.05 2.5.15 3.65.25 2.5.2-2.1.25-2.15 1.95-2.15zm4.7 2c0-1.95.05-2 1.75-2 .95 0 1.75-.2 1.75-.5 0-.25-.8-.5-1.75-.5-1.6 0-1.75-.1-1.75-1.5s.1-1.5 2-1.5c1.1 0 2-.2 2-.5 0-.25-1.1-.5-2.5-.5h-2.5v4.5c0 2.65.2 4.5.5 4.5s.5-.9.5-2zm6.15-2.3c-.1-5.8-.65-6.05-.65-.3 0 2.55.15 4.6.4 4.6.2 0 .3-1.95.25-4.3zm8.35 3.8c0-.25-.9-.5-1.95-.5-2.25 0-3.55-1.3-3.55-3.5s1.3-3.5 3.55-3.5c1.05 0 1.95-.2 1.95-.5 0-.25-.9-.5-1.95-.5-1.6 0-2.2.3-3.3 1.6-1.15 1.35-1.3 1.95-1.1 3.6.2 1.3.7 2.3 1.45 2.9 1.2.95 4.9 1.25 4.9.4zm6 0c0-.25-.8-.5-1.75-.5-1.6 0-1.75-.1-1.75-1.5s.15-1.5 1.75-1.5c.95 0 1.75-.2 1.75-.5 0-.25-.8-.5-1.75-.5-1.6 0-1.75-.1-1.75-1.5 0-1.45.1-1.5 2.1-1.5 1.5 0 1.95-.15 1.55-.55-.3-.3-1.4-.45-2.45-.35l-1.95.15-.15 3.7c-.1 2.05-.05 4 .1 4.4.3.75 4.3.9 4.3.15zm-58.75-4.6c.55-1.75 1.2-2.25 1.75-1.4.9 1.45.6 2.5-.8 2.5-1.1 0-1.2-.15-.95-1.1zm23.05 3c-2.45-3.45 1.6-8.05 4.35-5 1.9 2.1.45 6.1-2.15 6.1-.9 0-1.7-.4-2.2-1.1zM20.5 421v-10.5h57.75H136V421v10.5H78.25 20.5V421zm35.75 4c.2-.7.75-1 1.8-1 .9 0 1.65.35 2.05 1 .7 1.1 1.9 1.35 1.85.4 0-.35-.6-2.35-1.35-4.4-1.05-2.95-1.6-3.8-2.4-3.9-.95-.15-1.25.35-2.4 3.75l-1.3 4.55c0 1 1.4.7 1.75-.4zm11.05-3.65c0-4.7-.25-5.05-2.55-3.55-1.55 1-1.75 2.5-.25 1.7.95-.5 1-.4 1 3 0 3.15.1 3.55.9 3.4.75-.15.85-.8.9-4.55zm7.5 2.9c.9-2.2.9-3.45-.1-5.55-.65-1.35-1.1-1.7-2.3-1.7s-1.6.3-2.2 1.75c-.35.95-.7 2.3-.7 3 0 4.05 3.85 5.9 5.3 2.5zm7.35.75c.2-.75.7-1 1.85-1s1.65.25 1.85 1c.15.55.7 1 1.2 1 .8 0 .9-.25.65-1.35-.2-.8-.55-1.8-.8-2.35-.3-.5-.75-1.85-1.1-3-.5-1.65-.8-2.05-1.8-2.05s-1.3.5-2.3 3.35c-1.9 5.7-1.85 5.4-.8 5.4.55 0 1.1-.45 1.25-1zM93 421.5c0-3.7-.15-4.5-.75-4.5-1.15 0-3.25 1.5-3.25 2.3s.8.95 1.25.2c.8-1.3 1.25-.2 1.25 3 0 2.8.15 3.5.75 3.5s.75-.85.75-4.5zm6.95 3.3c1.5-1.6 1.95-4.9.85-6.55-1.55-2.35-5.3-1.15-5.3 1.75 0 2.15 1.1 3.2 2.9 2.85 2.3-.45 2 .55-.4 1.55-2.35 1-2.55 1.6-.6 1.6.85 0 1.9-.5 2.55-1.2zm-20.45-1.3c0-.25-.65-.5-1.5-.5-.8 0-1.5.25-1.5.5 0 .3.7.5 1.5.5.85 0 1.5-.2 1.5-.5zm-22-2.7c0-1.5.75-2.1 1.2-1 .5 1.35.35 2.2-.45 2.2-.45 0-.75-.45-.75-1.2zm14.15 3.1c-.85-1.15-.75-4.15.1-4.9 1.05-.85 1.7-.2 2.1 2.15.4 2.5-1.05 4.3-2.2 2.75zM83 421.45c0-.3.25-1 .6-1.6.55-1.05.55-1.05.95-.1.65 1.65.5 2.25-.55 2.25-.55 0-1-.25-1-.55zm14.55-.1c-.8-.8-.7-2.35.25-2.7 1-.4 2.3.95 1.95 1.95-.45 1.1-1.5 1.45-2.2.75zM143 421v-10.5h57.5H258V421v10.5h-57.5H143V421zm45.65 2c.2-.75.7-1 1.85-1s1.65.25 1.85 1c.15.55.7 1 1.25 1 .7 0 .9-.25.7-.85-2.6-8.1-2.5-7.9-3.75-7.9-1 0-1.35.5-2.6 4.25l-1.45 4.35c0 .1.4.15.95.15.5 0 1.05-.45 1.2-1zm10.85-3.5c0-4.9-.3-5.3-2.75-3.7-1.6 1.05-1.6 1.7.05 1.7 1.35 0 1.35 0 1.05 2.95-.35 3-.15 3.55 1 3.55.5 0 .65-1.1.65-4.5zm8 3.5c.35-.65 1.05-1 2-1s1.65.35 2 1c.75 1.4 2.2 1.35 1.75-.05-2.2-6.85-2.6-7.7-3.75-7.7-1 0-1.35.55-2.55 4.1-.75 2.25-1.25 4.2-1.05 4.35.5.55 1.05.3 1.6-.7zm10.9 0c1.2-1.15 1.85-3.85 1.3-5.6-.75-2.4-3.35-3.15-4.95-1.4-.75.85-.85 1.35-.45 2.9.45 1.75.55 1.85 2.35 1.8 2.4-.1 2.35.65-.15 1.7-1.1.45-2 1-2 1.25 0 .75 2.85.3 3.9-.65zm-13.65-1.5c-.15-.25-.85-.5-1.55-.5-.65 0-1.2.25-1.2.5 0 .3.7.5 1.55.5s1.4-.2 1.2-.5zm-14.95-2.6c.45-1.6.7-1.75 1.2-.9.8 1.2.55 2-.55 2-.8 0-.95-.2-.65-1.1zm19 0c.15-.65.4-1.25.5-1.35.3-.3.55.05.9 1.35.3.9.2 1.1-.7 1.1s-1-.2-.7-1.1zm6.9-.15c-.4-1.05.15-2.25 1-2.25.9 0 2 1.8 1.55 2.5-.45.75-2.25.6-2.55-.25zm238.8-25V357h34 34v36.75 36.75h-34-34v-36.75zm8 5.75c0-.25-.9-.5-2-.5-1.9 0-2-.1-2-1.5s.15-1.5 1.75-1.5c.95 0 1.75-.2 1.75-.5 0-.25-.8-.5-1.75-.5-1.6 0-1.75-.1-1.75-1.5s.1-1.5 2-1.5c1.1 0 2-.25 2-.55s-.95-.45-2.35-.35l-2.4.15-.05 4.4-.05 4.35h2.45c1.3 0 2.4-.2 2.4-.5zm7.5 0c0-.25-.9-.5-1.95-.5-3.15 0-4.4-2.45-2.8-5.5.65-1.3 1.05-1.5 2.75-1.5 1.1 0 2-.2 2-.5 0-.25-.9-.5-1.95-.5-2.55 0-4.05 1.75-4.05 4.65 0 2.75 1.5 4.35 4.1 4.35 1.05 0 1.9-.2 1.9-.5zm7.1-.35c.75-.65.9-1.5.8-4.6-.1-3.55-.1-3.6-.25-.8-.25 4.85-.45 5.25-2.35 5.25-2.35 0-2.9-.9-2.75-4.6.1-1.75-.05-3.1-.35-3.05-.8.25-.8 5.5.05 7.15.6 1.2 1.1 1.5 2.35 1.5.85 0 2-.35 2.5-.85zm8.4-3.15c.65 0 1.35.7 2 2.05 1.4 2.65 1.7 2.3.6-.7-.75-2.05-1.05-2.35-2.2-2.35-1.25 0-1.4-.2-1.4-1.55 0-1.4.1-1.5 1.6-1.35 1.4.1 1.7.4 1.95 1.65.25 1.4.3 1.4.65.4.2-.65.1-1.5-.3-2.15-.5-.8-1.05-1-2.65-.9l-2 .15-.15 3.7c-.15 4.1.5 6.75.8 3.2.1-1.75.35-2.15 1.1-2.15zm11.5 3c1.05-.8 1.25-1.35 1.25-3.4 0-3-1.2-4.6-3.35-4.6-2.2 0-3.3.8-3.85 2.75-1.25 4.6 2.5 7.95 5.95 5.25zm9.45-.3c2.25-2.9.65-7.7-2.6-7.7-2.35 0-3.85 1.7-3.85 4.45 0 2.85 1.45 4.55 3.8 4.55 1.15 0 1.9-.4 2.65-1.3zm4.45-5.7c.25 0 .8 1.45 1.35 3.25 1.05 3.8 2.05 4.15 3 1l1.3-3.5c.65-1.45.7-1.35.95 2.5l.3 4 .1-4.6c.15-6.1-.9-6.15-2.7-.1-.4 1.35-.95 2.45-1.15 2.45-.25 0-.95-1.5-1.6-3.35-.65-1.9-1.5-3.4-1.8-3.4-.35 0-.65.15-.65.4l.1 4.5.1 4.1.15-3.6c.1-2 .35-3.65.55-3.65zm-18.6 4.9c-.45-.6-.8-1.7-.8-2.4 0-2.25 1.35-3.6 3.4-3.4 2.25.2 3.05 1.8 2.3 4.75-.4 1.7-.6 1.9-2.3 2.05-1.4.1-2-.1-2.6-1zm8.9-.15c-.85-1.35-.7-3.8.35-5.1.7-.8 3.55-.85 4.35-.05.75.75.8 4.1.1 5.45-.8 1.5-3.75 1.3-4.8-.3zm193.1 31.9c-.15-.15-.3-48.65-.3-107.75V214.5h10.75 10.75v25.25V265h2.9c11 0 23.1-5.4 31.85-14.25 8.6-8.65 13.2-18.9 14.05-31.25l.35-5h22.9 22.95v107.75V430l-57.95-.05c-31.85 0-58.05-.1-58.25-.3zm28-108.35c1.65-1.7-.05-4.3-2.8-4.3-1.35 0-1.5-.15-1.5-1.55 0-1.45.1-1.5 1.85-1.35 1.5.1 1.9.4 2.15 1.4.2.75.45 1 .65.65.2-.3.1-1.15-.2-1.85-.5-1.1-.95-1.3-2.8-1.3h-2.15v4.5 4.5h2.05c1.1 0 2.35-.3 2.75-.7zm2.95-.8c.3-1.35.5-1.5 2.3-1.5 1.95 0 2 .05 2.75 2.45.15.4.35.6.45.45.4-.4-2.45-8.55-3-8.75-.25-.05-1.15 1.7-2 4l-1.65 4.5c-.1.2.05.35.3.35.3 0 .65-.65.85-1.5zm12.75 1c0-.25-.85-.5-1.9-.5-1.6 0-2.05-.25-2.5-1.25-1.5-3.25-.2-5.75 3-5.75 1.05 0 1.9-.2 1.9-.5 0-.8-4-.6-4.8.25-1.75 1.75-1.8 5.55-.1 7.45.7.85 4.4 1.1 4.4.3zm3-1.5c0-1.45.2-2 .75-2 .4 0 1.3.9 2 2s1.5 2 1.75 2c.6 0 .65-.85.15-1.1-.65-.25-2.65-3.3-2.65-3.95 0-.35.7-1.25 1.55-2.05s1.4-1.65 1.2-1.8c-.2-.2-1.2.6-2.3 1.8-1.1 1.15-2.1 2.1-2.2 2.1-.15 0-.25-.9-.25-2s-.2-2-.5-2-.5 1.85-.5 4.5.2 4.5.5 4.5.5-.9.5-2zm15.3 1.3c1.8-1.8 1.95-5.55.3-7.4-.45-.55-1.45-.9-2.45-.9-2.8 0-4 1.85-3.75 5.75.15 1.8 1.7 3.25 3.5 3.25.9 0 2-.3 2.4-.7zm4.7-1.3c0-1.95.05-2 1.75-2 .95 0 1.75-.2 1.75-.5 0-.25-.8-.5-1.75-.5-1.6 0-1.75-.1-1.75-1.5s.1-1.5 2-1.5c1.1 0 2-.2 2-.5 0-.25-1.1-.5-2.5-.5H760v4.5c0 2.65.2 4.5.5 4.5s.5-.9.5-2zm6 0c0-1.95.05-2 1.75-2 .95 0 1.75-.2 1.75-.5 0-.25-.8-.5-1.75-.5-1.6 0-1.75-.1-1.75-1.5s.1-1.5 2.05-1.5c1.2 0 1.9-.2 1.7-.5-.15-.25-1.3-.5-2.55-.5H766v4.5c0 2.65.2 4.5.5 4.5s.5-.9.5-2zm5.85-4.85c-.1-1.35-.15-.25-.15 2.35s.05 3.7.15 2.4a37.64 37.64 0 0 0 0-4.75zm8.4 6.35c-.15-.25-1.05-.5-1.95-.5-2.1 0-3.05-1.1-3.05-3.5 0-2.5.95-3.5 3.3-3.5 1.05 0 2.05-.2 2.2-.5.2-.3-.55-.5-1.8-.5-3.05 0-4.45 1.45-4.45 4.45 0 2.55.25 3.1 1.75 3.95 1.25.7 4.45.8 4 .1zm6.75 0c0-.25-.9-.5-2-.5-1.9 0-2-.1-2-1.5s.1-1.5 2.05-1.5c1.2 0 1.9-.2 1.7-.5-.15-.25-1.1-.5-2.05-.5-1.55 0-1.7-.1-1.7-1.5s.1-1.5 2-1.5c1.1 0 2-.2 2-.5 0-.25-1-.5-2.25-.5h-2.25v4.5 4.5h2.25c1.25 0 2.25-.2 2.25-.5zm-70-2.05c0-1.45.1-1.5 1.9-1.35 1.6.15 1.85.35 2 1.55.15 1.3.05 1.35-1.85 1.35-1.95 0-2.05-.05-2.05-1.55zm8.5-2.3c0-.5.25-1.25.5-1.65.4-.65.55-.6 1.2.25 1.1 1.45.95 2.25-.45 2.25-.85 0-1.25-.25-1.25-.85zm25.1 2.6c-.35-.7-.6-1.75-.6-2.25s.25-1.55.6-2.25c.45-1 .9-1.25 2.3-1.25 2.1 0 3.05 1.1 3.05 3.5s-.95 3.5-3.05 3.5c-1.4 0-1.85-.25-2.3-1.25zM395.1 402.5c0-.95.1-1.35.25-.85.1.45.1 1.25 0 1.75-.15.45-.25.05-.25-.9zm32.9-25v-20l9.4.1 9.35.15.15 19.9.1 19.85h-9.5-9.5v-20zm12 9.65c0-.85-1.85-3.15-2.55-3.15-.2 0-.25.45-.1 1 .25.95 0 1-3.05 1-2.95 0-3.3.1-3.3 1 0 .95.35 1 4.5 1 3.9 0 4.5-.1 4.5-.85zm0-5.15c0-.8-.4-.95-3.1-1.1l-3.15-.15 1.5-.8 3.15-1.65c1.15-.65 1.6-1.25 1.6-2.1 0-1.2-.05-1.2-4.5-1.2-4.15 0-4.5.05-4.5 1 0 .9.35 1 2.9 1 2.65.05 2.8.1 1.85.8-.55.45-1.85 1.15-2.85 1.6-1.55.7-1.9 1.1-1.9 2.2v1.4h4.5c4.15 0 4.5-.1 4.5-1zm-6.75-9.5c.15-.25.85-.5 1.5-.5s1.35-.2 1.5-.5c.15-.25.8-.5 1.45-.5 1.3 0 2.3-.85 2.3-2.05 0-.85-.8-1.25-5-2.65l-3.1-1.05c-1.4-.55-1.15 1.4.25 2 .8.35 1.1.9 1.1 2 0 1.15-.25 1.55-1.1 1.65-1.45.2-1.6 2.1-.2 2.1.55 0 1.15-.2 1.3-.5zm2.8-9.25c.6-.95 1.4-1.75 1.8-1.75.6 0 .7.4.5 1.75-.35 2.1.95 2.55 1.45.45.85-3.45-2.95-5.3-4.55-2.2-.5.95-1.15 1.5-1.85 1.5-.85 0-1-.2-.7-1.5.2-1.1.1-1.5-.45-1.5-1.05 0-1.5 2.35-.75 3.8 1.05 1.9 3.25 1.65 4.55-.55zM434.5 369c0-1.1.6-1.25 2.05-.45 1.25.65.8 1.45-.85 1.45-.85 0-1.2-.25-1.2-1zm20-43.5V301H472h17.5v-23.5V254h16.75H523v48 48h-34.25-34.25v-24.5zm.1-71.1l.15-39.65 13.9-.1 13.85-.1v39.75V294h-14-14l.1-39.6zm11.65 29.1c.15-.25.85-.5 1.5-.5s1.35-.2 1.5-.5c.15-.25.8-.5 1.45-.5 1.35 0 2.3-.9 2.3-2.1 0-.5-.05-.9-.15-.9-.05 0-1.35-.45-2.85-1s-3.15-1-3.6-1c-.7 0-.9-.4-.9-2 0-1.8.15-2 1.25-2 1.05 0 1.25.25 1.25 1.55 0 1 .2 1.45.65 1.35.3-.15.6-.8.6-1.45 0-.85.3-1.25 1.1-1.35.85-.15 1.1.15 1.25 1.2.1.75.45 1.45.8 1.6.4.1.6-.55.6-2.35V271h-4.5-4.5v3.4c0 3 .1 3.4 1.15 3.85.8.35 1.1.9 1.1 2 0 1.15-.25 1.55-1.1 1.65-1.45.2-1.6 2.1-.2 2.1.55 0 1.15-.2 1.3-.5zm0-15c1.45-.9 1.7-.9 2.25-.25.85 1 3 .95 3.8-.1.35-.5.7-1.85.7-3V263h-4.5c-4.15 0-4.5.05-4.5 1 0 .8.35 1 1.75 1 .95 0 1.75.2 1.75.45s-.8.9-1.75 1.5c-.95.55-1.75 1.35-1.75 1.8 0 1 .3.95 2.25-.25zm0-8c.15-.25.85-.5 1.5-.5s1.35-.2 1.5-.5c.15-.25.8-.5 1.45-.5 1.3 0 2.3-.85 2.3-2.05 0-.85-.8-1.25-5-2.65l-3.1-1.05c-1.4-.55-1.15 1.4.25 2 .75.35 1.15 1 1.25 2.15.15 1.45.05 1.6-1.1 1.6-.95 0-1.3.25-1.3 1 0 1.05 1.65 1.45 2.25.5zm.5-12.2c1.9-1.1 2.05-1.15 3.25-.3.7.45 1.65 1 2.15 1.15 1.35.5 1.05-.95-.5-2.1l-1.4-1.05 1.4-1.05c.75-.55 1.35-1.35 1.35-1.8 0-.6-.45-.5-2.1.45l-2.15 1.2-2-1.15c-2.3-1.3-2.75-1.4-2.75-.5 0 .35.7 1.05 1.5 1.5 1.85 1.1 1.85 1.4 0 2.45-.85.45-1.5 1.2-1.5 1.65 0 1 .35.95 2.75-.45zm4.3-6.95c2.1-1.6 2.45-4.05.9-6.05-.85-1.1-1.45-1.3-3.4-1.3-2.55 0-3.6.75-4.3 2.9-.45 1.5.55 3.85 1.9 4.5 1.5.7 3.95.7 4.9-.05zM472.5 231c.3-.5.5-1.85.5-2.95V226h-4.5-4.5v1.7c0 .95.2 2.3.45 2.95.45 1.2.7 1.25 4.05 1.25 2.9 0 3.6-.15 4-.9zm-4.85 49.25c-.15-.45-.15-.9-.05-1.05.35-.35 2.9.85 2.9 1.4 0 .75-2.5.4-2.85-.35zm1.7-13.6c-.8-.75-.3-1.65.9-1.65.9 0 1.25.25 1.25 1 0 1-1.4 1.4-2.15.65zM467.5 257c0-1.1.6-1.25 2.05-.5 1.4.8 1.15 1.5-.55 1.5-1.15 0-1.5-.2-1.5-1zm-1.5-17.7c-.3-.4-.5-1.25-.4-1.9.15-1.05.45-1.15 3.05-1.3 2.85-.15 2.85-.15 2.85 1.3 0 .75-.25 1.65-.6 2-.85.85-4.15.75-4.9-.1zm-.15-9.1c-.2-.2-.35-.8-.35-1.3 0-.65.35-.9 1.3-.9 1.05 0 1.25.2 1.1 1.1-.15 1.15-1.35 1.75-2.05 1.1zm3.45-.95c-.15-.45 0-.9.45-1.05 1.05-.4 2.35.15 2.15.95-.35.9-2.25 1-2.6.1zm214.7 50.4c-11.85-1.15-21.8-5.8-30.05-14.15-8.15-8.2-12.55-17.9-13.6-30.1l-.25-2.4h23.45H687v23.5c0 18.5-.15 23.5-.6 23.4-.35 0-1.45-.15-2.4-.25zm32.5-39.1V217l23.4.1 23.35.15-.2 3.5c-.35 7.75-4.15 17.75-9.2 24.5-7.85 10.5-20.7 17.65-33.2 18.6l-4.15.3v-23.6zm-220.65 6.1c-.2-.15-.35-7.5-.35-16.25v-15.9h12.3 12.25l-.25 5.15c-.1 2.8-.4 6.15-.55 7.5-.3 2.05-.5 2.35-1.55 2.35-.7 0-2.2-.5-3.35-1.1-2.75-1.4-6.55-1.45-8.85-.1-2.6 1.5-4.65 5.15-4.9 8.7-.25 3.25.4 5.6 2.15 8.25l1.2 1.75h-3.9c-2.15 0-4.05-.15-4.2-.35z"/><path d="M505.75 246.55c-2.45-1.05-4.25-4.7-4.25-8.65.05-7.1 6-11.7 11.6-8.95 3.2 1.6 4.55 4 4.8 8.3.3 6.35-2.65 9.8-8.4 9.7-1.5 0-3.2-.2-3.75-.4zm6.7-3.3c3-2.55 3.25-6.9.45-10-1.3-1.5-1.8-1.75-3.65-1.75-4.25 0-7 4.15-5.7 8.55 1.3 4.2 5.75 5.85 8.9 3.2zm-6.35-.85c-3.05-3.3-2.15-8.4 1.75-9.95 1.5-.55 3.9.35 4.9 1.85.75 1.15.75 1.2-.65 1.2-1.75 0-2.6.8-2.6 2.55 0 1.7 1.15 2.65 2.75 2.35 1.6-.35 1.6.1-.15 1.75-1.8 1.75-4.45 1.85-6 .25zm11.45 1.5c1.45-2.9 1.45-2.9 1.45-.25 0 2.2-.1 2.35-1.25 2.35h-1.25l1.05-2.1z"/><path d="M517.75 232.2c-.95-2.25-.95-2.15.25-1.85.75.2 1 .7 1 1.95 0 2.15-.3 2.15-1.25-.1zm122.6-.55c-.2-.15-.35-.6-.35-.95 0-.55 4.5-.7 23.5-.8l23.5-.15v1.15 1.1h-23.15c-12.75 0-23.35-.15-23.5-.35zm99.7-15.5c-23-.15-24.65-.3-23.75-1.75.15-.2 10.8-.4 23.75-.4h23.45v1.25c0 .7-.05 1.2-.1 1.15-.1-.1-10.6-.2-23.35-.25zM395 210.45c0-.85.2-1.4.5-1.2.3.15.5.85.5 1.55 0 .65-.2 1.2-.5 1.2-.25 0-.5-.7-.5-1.55zm5.05-12.95l.05-11.5h23.45H447v11.5V209h-23.5-23.55l.1-11.5zm13.95 4c0-2.45-.05-2.5-1.5-2.5-1.15 0-1.5.2-1.5 1 0 .55.35 1 .75 1s.75.25.75.5c0 .85-2.85.6-3.2-.3-.5-1.25-.35-2.95.3-3.6.35-.35 1.45-.6 2.5-.6 1.55 0 1.9-.2 1.9-1 0-.85-.35-1-2-1-2.9 0-4.5 1.7-4.5 4.75s1.2 4.25 4.25 4.25H414v-2.5zm6.7 1.4c1.1-1.5 1.05-5.8-.05-7-.45-.5-1.4-.9-2.15-.9-1.65 0-2.5 1.6-2.5 4.65 0 2.55 1.15 4.35 2.75 4.35.65 0 1.55-.5 1.95-1.1zm12.8-1.4c0-2.45-.05-2.5-1.5-2.5-1.15 0-1.5.2-1.5 1 0 .55.35 1 .75 1s.75.25.75.5c0 .3-.65.5-1.5.5-1.15 0-1.55-.25-1.8-1.25-.15-.7-.15-1.8 0-2.45.25-1.05.65-1.25 2.4-1.4 1.55-.1 2.2-.4 2.3-1 .15-.75-.2-.9-2.05-.9-2.85 0-4.4 1.5-4.45 4.4-.05 3.1 1.3 4.55 4.25 4.6h2.35v-2.5zm6.6 1.65c1.85-1.65.65-5.15-1.8-5.15-.7 0-1.3-.2-1.3-.5 0-.25.8-.5 1.8-.5 1.4 0 1.75-.15 1.6-.85-.1-.65-.75-.95-2.3-1.05l-2.1-.15v2.5c0 2.3.65 3.4 1.1 2 .3-.85 2.4.55 2.4 1.55s-2.1 2.4-2.4 1.55c-.25-.8-1.6-.7-1.6.1 0 .4.15.85.35 1 .6.65 3.35.35 4.25-.5zM426 201.5c0-.25-.65-.5-1.5-.5-.8 0-1.5.25-1.5.5 0 .3.7.5 1.5.5.85 0 1.5-.2 1.5-.5z"/><use xlink:href="#C" x="207" y="-105"/><path d="M688 185.25V163.5l-116.85-.1-116.9-.15V143.5v-19.75l37.75-.1 116.85-.1 79.15-.05.1-27.1.15-27.15h61.25 61.25l.15 68.9.1 68.85h-61.5H688v-21.75zm-293.3 19.5c.05-.7.3-1.25.55-1.25.7 0 .65 2.1-.05 2.35-.3.1-.5-.35-.5-1.1zm59.8-16.5V170.5h34.25H523l-.1 17.65-.15 17.6-34.1.15-34.15.1v-17.75zm75.5 0V170.5h32 32v17.75V206h-32-32v-17.75zm71 0V170.5h40 40v17.75V206h-40-40v-17.75z"/><path d="M394.7 198.65c.05-.75.3-1.35.55-1.25.7.15.65 2.2-.05 2.45-.3.1-.55-.4-.5-1.2zm-.1-5.85c.1-.75.4-1.3.65-1.3.75 0 .6 2.15-.15 2.4-.5.15-.65-.2-.5-1.1zm.2-6.15c.05-1.7.9-1.65 1.1.1.1.8-.1 1.25-.5 1.25-.45 0-.65-.5-.6-1.35zm.1-6.15c.15-1.05.4-1.4.7-1.1.6.6.35 2.2-.4 2.45-.35.1-.45-.4-.3-1.35zm5.2-17.1l.15-15.65 23.4-.15 23.35-.1v15.75V179h-23.5H400l.1-15.6zm10 5.45c-.15-1.75-.1-1.85 1.35-1.85.8 0 1.65-.2 1.8-.5.2-.3-.35-.5-1.2-.5-1 0-1.55-.25-1.55-.7 0-.4-.15-1.05-.3-1.5-.25-.65.05-.8 1.5-.8 1 0 1.8-.2 1.8-.5 0-.25-1.1-.5-2.5-.5h-2.5v4.55c0 4.05.1 4.5.85 4.35.7-.15.85-.55.75-2.05zm9.7.4c.9-2.2.9-3.45-.1-5.6-.75-1.45-1.05-1.7-2.4-1.55-2 .2-2.9 1.9-2.65 5 .25 2.9 1 3.9 2.95 3.9 1.2 0 1.6-.3 2.2-1.75zm7.7-.25c0-1.9.1-2 1.45-2 2.1 0 2.4-.9.45-1.1-1.4-.1-1.7-.4-1.8-1.5-.15-1.3-.05-1.4 1.6-1.4 1 0 1.8-.2 1.8-.5 0-.25-1.1-.5-2.5-.5H426v4.5c0 3.65.15 4.5.75 4.5.55 0 .75-.55.75-2zm9.9.65c.4-.9.45-1.5.1-1.85-.25-.25-.5-1.7-.5-3.15 0-3.45-.8-3.45-3.15 0-2.4 3.45-2.4 4.35-.1 4.35 1.4 0 1.75.2 1.75 1 0 1.45 1.15 1.2 1.9-.35zm-12.9-1.15c0-.25-.65-.5-1.5-.5-.8 0-1.5.25-1.5.5 0 .3.7.5 1.5.5.85 0 1.5-.2 1.5-.5zm-8.05-.15c-.65-1.45.05-4.6 1.05-4.6s1.75 4.05.95 5.05-1.4.9-2-.45zm17-1.25c.25-.5.85-1.2 1.25-1.6.7-.55.8-.4.8.95s-.2 1.55-1.25 1.55c-1.1 0-1.2-.15-.8-.9zm-38.95 7.7c0-.7.2-1.35.45-1.55.6-.35 1.25 1.55.8 2.25-.55.9-1.25.5-1.25-.7zm6-43.95v-9.7l15.85-.3 23.25-.35h7.4v10 10h-23.25-23.25v-9.65zm13.5 5.2c0-.75-.4-1.05-1.6-1.15-1.05-.1-1.65-.4-1.65-.9s.6-.8 1.65-.9c1.15-.1 1.6-.4 1.6-1.1s-.45-1-1.6-1.1c-1.05-.1-1.65-.4-1.65-.9s.6-.8 1.65-.9c2.55-.25 1.85-1.1-.9-1.1H409v4.5 4.5h2.5c2.15 0 2.5-.15 2.5-.95zm6.4-.3c.9-1.95.75-5.75-.25-6.85-2.05-2.25-4.65-.25-4.65 3.6 0 2.85 1.1 4.5 2.95 4.5 1 0 1.55-.35 1.95-1.25zm11.1.25c0-.8-.35-1-1.75-1s-1.75-.2-1.75-.95.4-1.05 1.65-1.15c2.1-.2 2.15-1.55.1-1.9-.9-.15-1.55-.6-1.65-1.15-.15-.7.2-.85 1.6-.85 1 0 1.8-.25 1.8-.55s-.95-.45-2.35-.35l-2.4.15-.15 4.4-.15 4.35H429c2.15 0 2.5-.15 2.5-1zm6.5.05c0-.55.3-1.1.65-1.25.5-.25.5-.35 0-.6-.4-.2-.65-1.35-.65-3.25 0-2.6-.1-2.95-1-2.95-.55 0-1 .2-1 .45s-.8 1.5-1.75 2.75c-2.35 3.05-2.3 3.8.25 3.8 1.65 0 2 .15 2 1 0 .55.35 1 .75 1s.75-.45.75-.95zm-13-1.55c0-.25-.65-.5-1.5-.5-.8 0-1.5.25-1.5.5 0 .3.7.5 1.5.5.85 0 1.5-.2 1.5-.5zm-7.4.4c-.95-.95-.75-4.75.25-5.1 1.25-.5 1.7.35 1.55 2.95-.15 2.5-.75 3.2-1.8 2.15zm16.4-1.25c.05-.2.6-1.05 1.3-1.9l1.25-1.5-.15 1.75c-.1 1.4-.4 1.8-1.25 1.9-.65.1-1.15 0-1.15-.25zm-93-5.9V121h26 26v6.75 6.75h-26-26v-6.75zm15.1 4.4c1.5-1.35.95-3.15-1.35-4.45-1.55-.85-1.5-1.7.15-1.7 1.4 0 2.4-1 1.75-1.7-.7-.7-3.55-.25-4.35.65-1.25 1.35-.85 2.6 1.3 4s2.05 2.05-.4 2.05c-1.35 0-1.7.2-1.7 1s.35 1 1.85 1c1 0 2.25-.35 2.75-.85zm3.4-.15c.35-.65 1.05-1 2-1s1.65.35 2 1c.5.95 2 1.4 2 .65 0-.25-.65-2.2-1.45-4.4-1.2-3.35-1.6-4-2.5-4-.95 0-1.35.65-2.55 4.25l-1.5 4.4c0 .05.35.1.75.1s.95-.45 1.25-1zm9.1-2.3l.15-3.3 1.75 3.3c1.35 2.55 2 3.3 2.9 3.3 1.05 0 1.1-.15 1.1-4.5 0-3.6-.15-4.5-.75-4.5-.55 0-.75.8-.85 3.35-.15 3.3-.15 3.3-.9 1.85-1.8-3.6-3.05-5.2-4-5.2-.9 0-1 .35-1 4.5 0 3.6.15 4.5.75 4.5.55 0 .75-.8.85-3.3zm12.9 1.7c.65-1.25.65-1.45-.05-2.2-.65-.65-.7-1.05-.3-2.2.75-1.95-.2-3-2.7-3-1.6 0-1.95.2-1.95.95s.35.95 1.55.85c2.2-.1 2.35.95.35 2.2l-1.65 1h1.65c1.25 0 1.6.2 1.6.95 0 1.4-1.25 2.25-2.45 1.6-1.35-.75-1.55-.7-1.55.5 0 .9.25 1 2.35.85 2-.1 2.5-.4 3.15-1.5zm-20.65-2.75c-.25-.45.55-2.9.85-2.6.1.1.3.8.5 1.6.25 1 .15 1.35-.4 1.35-.4 0-.85-.15-.95-.35zm93.65-15.25l-.1-23.65-.05-20.5h34.2 34.2l.15 23.65.1 23.6h-34.25-34.25v-3.1zm27.9-12c.4-.4.6-2.45.6-6 0-4.45-.15-5.4-.75-5.4s-.75.85-.75 4.7c0 4.25-.1 4.75-1.1 5.4-.6.4-.9.95-.7 1.3.45.75 1.95.75 2.7 0zm14.85-.75c.3-.6.55-3.2.55-5.75-.05-4-.15-4.65-.9-4.8-.8-.15-.9.35-.9 4.85 0 4.05-.15 5.05-.7 5.05-.9 0-1.45.85-1.05 1.55.55.85 2.45.3 3-.9zm-7.85-6.05c.1-3.2-.05-4.2-.6-4.4-.9-.35-3.3 1.2-3.3 2.1 0 .85.6.9 1.4.1.45-.45.6.2.6 3.05 0 3.2.1 3.6.9 3.45.7-.15.85-.8 1-4.3zm15.3 3.3c1.7-2.45.35-5.25-2.3-4.7-.75.15-1.4.1-1.4-.15 0-.6 2.3-2.05 3.25-2.05.4 0 .75-.2.75-.5 0-.25-.65-.5-1.45-.5-1.05 0-1.85.45-2.8 1.6-1.15 1.35-1.3 1.95-1.1 3.75.1 1.2.5 2.5.85 2.9.95 1.15 3.3.95 4.2-.35zm-9.7-1.4c0-.25-.65-.5-1.5-.5-.8 0-1.5.25-1.5.5 0 .3.7.5 1.5.5.85 0 1.5-.2 1.5-.5zm6.6.4c-.8-.8-.75-1.65.2-2.4 1.05-.9 2.45.45 1.95 1.95-.35 1.15-1.25 1.35-2.15.45zm28.4-4.15V69h32 32v23.75 23.75h-32-32V92.75zm21.5 1.75c0-3.65-.15-4.5-.75-4.5s-.75.85-.75 4.5.15 4.5.75 4.5.75-.85.75-4.5zm6 4.4c0-.1.15-2 .3-4.25.25-3.45.15-4.2-.45-4.45-.95-.35-3.35 1.15-3.35 2.1 0 .85.6.9 1.4.1.45-.45.6.2.6 3 0 2.85.15 3.6.75 3.6.4 0 .75-.05.75-.1zm8.75-4.4c0-3.65-.1-4.25-.85-4.4-.8-.15-.9.3-.9 4.4s.1 4.55.9 4.4c.75-.15.85-.75.85-4.4zm7.2 2.9c.6-1 .65-1.7.25-2.75-.4-1.2-.75-1.4-2.3-1.4-2.1 0-2.05-.9.15-1.85 1.75-.75 1.9-1.4.35-1.4-3.75.05-5.35 6.45-2.2 8.65 1.1.75 3 .1 3.75-1.25zM563 96.5c0-.25-.65-.5-1.5-.5-.8 0-1.5.25-1.5.5 0 .3.7.5 1.5.5.85 0 1.5-.2 1.5-.5zm6.75 0c-.4-1.3.3-2.15 1.55-1.9.65.1.95.6.95 1.4 0 1.7-2 2.05-2.5.5zm31.35-3.6l.15-23.65 39.9-.15L681 69v23.75 23.75h-40-40l.1-23.6zm24.5 4.25c.15-1.8.25-1.9 2.05-2.05l1.85-.15v2c0 1.5.2 2.05.75 2.05.6 0 .75-.85.75-4.5s-.15-4.5-.75-4.5c-.5 0-.75.5-.75 1.55 0 1.45-.1 1.5-1.85 1.35-1.65-.15-1.9-.35-2.05-1.5-.1-.8-.45-1.4-.9-1.4-.55 0-.7.95-.7 4.5 0 3.6.15 4.5.7 4.5.5 0 .8-.65.9-1.85zm11.4 1.5c.05-.25.15-2.15.3-4.3.2-3.1.15-3.9-.5-4.15-.9-.35-3.3 1.15-3.3 2.1 0 .85.6.9 1.4.1.45-.45.6.2.6 3 0 2.85.15 3.6.75 3.6.4 0 .75-.15.75-.35zm8.6-1.5c.15-1.8.25-1.9 2.05-2.05l1.85-.15v2c0 1.5.2 2.05.75 2.05.6 0 .75-.85.75-4.5s-.15-4.5-.75-4.5c-.5 0-.75.5-.75 1.55 0 1.45-.1 1.5-1.85 1.35-1.65-.15-1.9-.3-1.9-1.4 0-.75-.35-1.3-.9-1.4-.75-.15-.85.35-.85 4.35 0 3.65.15 4.55.7 4.55.5 0 .8-.65.9-1.85zm11.8 1.25c.35-.35.6-1.4.6-2.4 0-2.1-.7-3-2.35-3-.65 0-1.15-.2-1.15-.5 0-.25.7-.5 1.5-.5 1.15 0 1.5-.2 1.5-1 0-.85-.35-1-2.25-1H653v2.3c0 2.05.1 2.3 1 2.05 1.3-.35 2.65.75 2.4 1.95-.1.7-.6.95-1.75.95-1.75 0-2.4.4-1.9 1.2.45.75 3.9.7 4.65-.05zm-14.9-1.9c0-.25-.65-.5-1.5-.5-.8 0-1.5.25-1.5.5 0 .3.7.5 1.5.5.85 0 1.5-.2 1.5-.5zM144 113c0-1 .35-1 26-1s26 0 26 1-.35 1-26 1-26 0-26-1zm53 0c0-1 .35-1 26-1s26 0 26 1-.35 1-26 1-26 0-26-1zm-53-28.05v-26.1l4.2.3c17.35 1.2 34.15 12.6 42.15 28.6 3.2 6.4 5.65 15.65 5.65 21.55v1.7h-26-26V84.95zm53.25 22.2c2.1-23.9 19.35-42.95 42.9-47.4 2.15-.4 5.05-.75 6.4-.75H249v26 26h-26.05-26.05l.35-3.85zm404.1-46c-.2-.15-.35-11.4-.35-25V11.5h40 40v25 25h-39.65c-21.85 0-39.85-.15-40-.35zM632.75 41c0-.5-.6-.8-1.6-.9l-1.6-.15-.15-3.35c-.1-2.7-.3-3.35-1-3.5-.8-.15-.9.3-.9 4.4v4.55l2.65-.15c1.9-.1 2.6-.35 2.6-.9zm3.25-3.5c0-3.65-.15-4.5-.75-4.5s-.75.85-.75 4.5.15 4.5.75 4.5.75-.85.75-4.5zm4.1 1.4c.15-3.3.4-3.2 1.4.75.85 3.3 1.9 2.95 3.3-1.15l1.1-3.25.05 3.4c.05 2.5.2 3.4.7 3.25.4-.15.65-1.65.75-4.6.15-4.3.1-4.35-1-4.2-.9.1-1.35.8-2.15 3-.55 1.55-1.15 2.95-1.3 3.1-.15.2-.7-1.15-1.2-2.95-.75-2.85-1-3.25-2.05-3.25-1.2 0-1.2.1-1.2 4.5 0 3.6.15 4.5.75 4.5.5 0 .75-.8.85-3.1zm13.4-1.4c0-3.95-.1-4.5-.85-4.5-1.25.05-3.35 1.75-2.95 2.4.15.25.75.4 1.3.25.95-.25 1 0 1 3.05 0 2.6.15 3.3.75 3.3s.75-.85.75-4.5z"/></g><defs ><path id="B" d="M121.35 331.65c-.85-.8-.25-1.65 1.15-1.65 1.15 0 1.5.2 1.5 1 0 .7-.35 1-1.15 1-.65 0-1.35-.15-1.5-.35z"/><path id="C" d="M210.85 307.15c-.5-.5-.4-5.05.1-5.35.25-.2.8-.15 1.25 0 1.15.45 1.15 4.95 0 5.4-.95.35-.95.35-1.35-.05z"/></defs></svg>